<?xml version="1.0" encoding="utf-8"?>
<svg version="1.1" xmlns="http://www.w3.org/2000/svg" xmlns:xlink="http://www.w3.org/1999/xlink">
<defs>
<symbol id="cross" viewBox="0 0 12 12">
<polygon points="11.5,2.127 10.248,0.875 6.173,4.949 2.096,0.848 0.843,2.1 4.92,6.202 0.871,10.252 2.123,11.505 6.169,7.458 10.191,11.505 11.445,10.252 7.422,6.205"/>
</symbol>
<symbol id="burger" viewBox="0 0 20 20">
    <rect y="4" width="20" height="2" />
    <rect y="9" width="20" height="2" />
    <rect y="14" width="20" height="2" />
</symbol>
<symbol id="cart" viewBox="0 0 19 19">
<path d="M18.885,4.776c-0.129-0.197-0.352-0.312-0.586-0.312H8.552c-0.387,0-0.703,0.312-0.703,0.692 s0.316,0.693,0.703,0.693h8.669l-2.601,5.89H6.795L3.924,1.509C3.843,1.208,3.562,1,3.245,1H0.703C0.316,1,0,1.312,0,1.693 c0,0.381,0.316,0.692,0.703,0.692h2.015l2.87,10.231c0.082,0.301,0.363,0.509,0.68,0.509h8.821c0.281,0,0.527-0.161,0.645-0.416 l3.21-7.275C19.037,5.216,19.014,4.973,18.885,4.776z M5.6,14.858c-0.879,0-1.594,0.704-1.594,1.57S4.721,18,5.6,18 s1.593-0.705,1.593-1.571S6.479,14.858,5.6,14.858z M15.452,14.858c-0.879,0.058-1.535,0.82-1.477,1.675 c0.059,0.82,0.75,1.467,1.582,1.467h0.117c0.422-0.035,0.808-0.219,1.089-0.543c0.281-0.312,0.41-0.717,0.387-1.144 C17.092,15.459,16.331,14.801,15.452,14.858z"/>
</symbol>
<symbol id="button-cart" viewBox="0 0 16 16">
<path d="M15.902,3.832c-0.108-0.174-0.296-0.274-0.493-0.274H7.202c-0.326,0-0.592,0.274-0.592,0.61 c0,0.337,0.267,0.611,0.592,0.611h7.3l-2.19,5.197h-6.59L3.305,0.948C3.236,0.684,2.999,0.5,2.732,0.5H0.592 C0.266,0.5,0,0.774,0,1.111c0,0.336,0.266,0.611,0.592,0.611h1.697l2.417,9.028C4.774,11.017,5.011,11.2,5.278,11.2h7.428 c0.237,0,0.444-0.143,0.543-0.367l2.703-6.421C16.031,4.22,16.012,4.005,15.902,3.832z M4.715,12.729 c-0.74,0-1.342,0.622-1.342,1.386S3.976,15.5,4.715,15.5c0.74,0,1.342-0.622,1.342-1.386S5.456,12.729,4.715,12.729z  M13.012,12.729c-0.739,0.051-1.292,0.724-1.242,1.478C11.818,14.93,12.4,15.5,13.102,15.5h0.098 c0.355-0.03,0.682-0.193,0.918-0.479c0.236-0.274,0.346-0.631,0.325-1.008C14.394,13.258,13.752,12.678,13.012,12.729z"/>
</symbol>
<symbol id="checkout" viewBox="0 0 24 24">
<path d="M23.921,6.477 C23.921,6.477 19.867,15.464 19.867,15.464 C19.719,15.778 19.409,15.978 19.054,15.978 C19.054,15.978 7.914,15.978 7.914,15.978 C7.515,15.978 7.160,15.721 7.056,15.350 C7.056,15.350 3.432,2.711 3.432,2.711 C3.432,2.711 0.887,2.711 0.887,2.711 C0.399,2.711 -0.000,2.326 -0.000,1.854 C-0.000,1.384 0.399,0.999 0.887,0.999 C0.887,0.999 4.098,0.999 4.098,0.999 C4.497,0.999 4.852,1.256 4.956,1.626 C4.956,1.626 8.580,14.266 8.580,14.266 L18.462,14.266 L21.746,6.990 C21.746,6.990 21.800,6.892 22.000,6.000 C22.301,4.660 23.821,5.626 23.847,5.664 C24.010,5.907 24.039,6.206 23.921,6.477 zM7.071,18.118 C8.181,18.118 9.083,18.989 9.083,20.058 C9.083,21.128 8.181,21.999 7.071,21.999 C5.962,21.999 5.059,21.128 5.059,20.058 C5.059,18.989 5.962,18.118 7.071,18.118 zM19.513,18.118 C20.622,18.047 21.584,18.860 21.658,19.916 C21.687,20.444 21.524,20.943 21.170,21.328 C20.814,21.728 20.326,21.956 19.793,21.999 C19.749,21.999 19.690,21.999 19.646,21.999 C18.595,21.999 17.722,21.200 17.649,20.187 C17.575,19.131 18.403,18.189 19.513,18.118 z" />
<path d="M17.885,6.388 C17.894,6.373 17.903,6.359 17.911,6.343 C17.920,6.327 17.927,6.310 17.934,6.293 C17.939,6.284 17.943,6.275 17.947,6.266 C17.949,6.261 17.950,6.256 17.952,6.251 C17.959,6.232 17.964,6.214 17.969,6.196 C17.973,6.180 17.977,6.166 17.980,6.150 C17.984,6.132 17.987,6.114 17.989,6.096 C17.991,6.080 17.993,6.065 17.995,6.049 C17.996,6.030 17.996,6.011 17.996,5.992 C17.996,5.977 17.996,5.962 17.995,5.947 C17.994,5.928 17.991,5.908 17.988,5.889 C17.986,5.874 17.984,5.860 17.981,5.846 C17.978,5.827 17.972,5.808 17.967,5.789 C17.963,5.775 17.959,5.760 17.953,5.746 C17.951,5.740 17.950,5.733 17.948,5.727 C17.943,5.715 17.937,5.704 17.932,5.693 C17.925,5.679 17.919,5.665 17.912,5.651 C17.903,5.635 17.893,5.618 17.883,5.602 C17.875,5.590 17.867,5.577 17.859,5.565 C17.847,5.549 17.834,5.534 17.822,5.519 C17.816,5.512 17.811,5.505 17.804,5.498 C17.804,5.498 14.724,2.198 14.724,2.198 C14.467,1.922 14.050,1.922 13.794,2.198 C13.537,2.473 13.537,2.919 13.794,3.194 C13.794,3.194 15.751,5.291 15.751,5.291 C15.751,5.291 9.657,5.291 9.657,5.291 C9.430,5.291 9.230,5.414 9.111,5.602 C9.040,5.715 8.999,5.850 8.999,5.997 C8.999,6.191 9.073,6.368 9.192,6.495 C9.311,6.623 9.475,6.702 9.657,6.702 C9.657,6.702 9.657,6.701 9.657,6.701 L15.751,6.701 C15.751,6.701 13.793,8.798 13.793,8.798 C13.537,9.074 13.536,9.520 13.793,9.795 C13.922,9.933 14.091,10.002 14.259,10.002 C14.427,10.002 14.596,9.934 14.724,9.796 C14.724,9.796 17.805,6.495 17.805,6.495 C17.811,6.488 17.816,6.480 17.822,6.473 C17.835,6.458 17.847,6.444 17.858,6.428 C17.867,6.415 17.876,6.402 17.885,6.388 z" />
</symbol>
<symbol id="search" viewBox="0 0 19 19">
<path d="M13.616,12.292c0.937-1.237,1.501-2.774,1.501-4.445c0.001-4.051-3.278-7.348-7.309-7.348 s-7.31,3.297-7.31,7.348c0,4.053,3.28,7.349,7.31,7.349c1.71,0,3.279-0.597,4.523-1.588l4.869,4.895l1.299-1.304L13.616,12.292z M7.809,13.542c-3.123,0-5.663-2.554-5.663-5.694c0-3.14,2.54-5.694,5.663-5.694c3.124,0,5.664,2.554,5.664,5.693 C13.473,10.987,10.932,13.542,7.809,13.542z"/>
</symbol>
<symbol id="pk_compare" viewBox="0 0 15 15">
<path d="M0.5,14.5H4V9.25H0.5V14.5z M5.75,14.5h3.5V5.75h-3.5V14.5z M11,0.5v14h3.5v-14H11z"/>
</symbol>
<symbol id="facebook" viewBox="0 0 310 310">
<path d="M81.703,165.106h33.981V305c0,2.762,2.238,5,5,5h57.616c2.762,0,5-2.238,5-5V165.765h39.064 c2.54,0,4.677-1.906,4.967-4.429l5.933-51.502c0.163-1.417-0.286-2.836-1.234-3.899c-0.949-1.064-2.307-1.673-3.732-1.673h-44.996     V71.978c0-9.732,5.24-14.667,15.576-14.667c1.473,0,29.42,0,29.42,0c2.762,0,5-2.239,5-5V5.037c0-2.762-2.238-5-5-5h-40.545     C187.467,0.023,186.832,0,185.896,0c-7.035,0-31.488,1.381-50.804,19.151c-21.402,19.692-18.427,43.27-17.716,47.358v37.752H81.703     c-2.762,0-5,2.238-5,5v50.844C76.703,162.867,78.941,165.106,81.703,165.106z"/>
</symbol>
<symbol id="facebook-solid" viewBox="0 0 512 512">
<path d="M296.296,512H200.36V256h-64v-88.225l64-0.029l-0.104-51.976C200.256,43.794,219.773,0,304.556,0h70.588v88.242h-44.115 c-33.016,0-34.604,12.328-34.604,35.342l-0.131,44.162h79.346l-9.354,88.225L296.36,256L296.296,512z"/>
</symbol>
<symbol id="messenger" viewBox="0 0 512 512">
<path style="fill:#1E88E5;" d="M256,0C114.624,0,0,106.112,0,237.024c0,74.592,37.216,141.12,95.392,184.576V512l87.168-47.84 c23.264,6.432,47.904,9.92,73.44,9.92c141.376,0,256-106.112,256-237.024C512,106.112,397.376,0,256,0z"/><polygon style="fill:#FAFAFA;" points="281.44,319.2 216.256,249.664 89.056,319.2 228.96,170.656 295.744,240.192 421.376,170.656"/>
</symbol>
<symbol id="twitter" viewBox="0 0 512 512">
<path d="M512,97.248c-19.04,8.352-39.328,13.888-60.48,16.576c21.76-12.992,38.368-33.408,46.176-58.016 c-20.288,12.096-42.688,20.64-66.56,25.408C411.872,60.704,384.416,48,354.464,48c-58.112,0-104.896,47.168-104.896,104.992 c0,8.32,0.704,16.32,2.432,23.936c-87.264-4.256-164.48-46.08-216.352-109.792c-9.056,15.712-14.368,33.696-14.368,53.056 c0,36.352,18.72,68.576,46.624,87.232c-16.864-0.32-33.408-5.216-47.424-12.928c0,0.32,0,0.736,0,1.152 c0,51.008,36.384,93.376,84.096,103.136c-8.544,2.336-17.856,3.456-27.52,3.456c-6.72,0-13.504-0.384-19.872-1.792 c13.6,41.568,52.192,72.128,98.08,73.12c-35.712,27.936-81.056,44.768-130.144,44.768c-8.608,0-16.864-0.384-25.12-1.44 C46.496,446.88,101.6,464,161.024,464c193.152,0,298.752-160,298.752-298.688c0-4.64-0.16-9.12-0.384-13.568 C480.224,136.96,497.728,118.496,512,97.248z"/>
</symbol>
<symbol id="vimeo" viewBox="0 0 533.333 533.333">
<path d="M0,160.609l21.663,28.409c0,0,44.672-35.213,59.563-17.605c14.889,17.605,71.737,230.186,90.713,269.399 c16.562,34.393,62.249,79.854,112.351,47.387c50.071-32.469,216.583-174.629,246.389-342.509 C560.46-22.137,330.304,13.02,305.924,159.236c60.931-36.582,93.456,14.863,62.274,73.11 c-31.124,58.19-59.562,96.144-74.454,96.144c-14.865,0-26.297-38.943-43.327-107.005C232.814,151.12,232.922,24.371,159.732,38.74 C90.713,52.289,0,160.609,0,160.609z"/>
</symbol>
<symbol id="youtube" viewBox="0 0 96.875 96.875">
<path d="M95.201,25.538c-1.186-5.152-5.4-8.953-10.473-9.52c-12.013-1.341-24.172-1.348-36.275-1.341 c-12.105-0.007-24.266,0-36.279,1.341c-5.07,0.567-9.281,4.368-10.467,9.52C0.019,32.875,0,40.884,0,48.438 C0,55.992,0,64,1.688,71.336c1.184,5.151,5.396,8.952,10.469,9.52c12.012,1.342,24.172,1.349,36.277,1.342 c12.107,0.007,24.264,0,36.275-1.342c5.07-0.567,9.285-4.368,10.471-9.52c1.689-7.337,1.695-15.345,1.695-22.898 C96.875,40.884,96.889,32.875,95.201,25.538z M35.936,63.474c0-10.716,0-21.32,0-32.037c10.267,5.357,20.466,10.678,30.798,16.068 C56.434,52.847,46.23,58.136,35.936,63.474z"/>
</symbol>
<symbol id="instagram" viewBox="0 0 438.536 438.5369">
<path d="M421.981,16.562C410.941,5.519,397.711,0,382.298,0H56.248C40.83,0,27.604,5.521,16.561,16.562 C5.52,27.6,0.001,40.828,0.001,56.243V382.29c0,15.413,5.518,28.644,16.56,39.683c11.043,11.04,24.272,16.563,39.687,16.563 h326.046c15.41,0,28.644-5.523,39.684-16.563c11.043-11.039,16.557-24.27,16.557-39.683V56.243 C438.534,40.825,433.021,27.604,421.981,16.562z M157.462,158.025c17.224-16.652,37.924-24.982,62.097-24.982 c24.36,0,45.153,8.33,62.381,24.982c17.228,16.655,25.837,36.785,25.837,60.386c0,23.598-8.609,43.729-25.837,60.379 c-17.228,16.659-38.014,24.988-62.381,24.988c-24.172,0-44.87-8.336-62.097-24.988c-17.228-16.652-25.841-36.781-25.841-60.379 C131.621,194.81,140.234,174.681,157.462,158.025z M388.865,370.589c0,4.945-1.718,9.083-5.141,12.416 c-3.433,3.33-7.519,4.996-12.282,4.996h-305.2c-4.948,0-9.091-1.666-12.419-4.996c-3.333-3.326-4.998-7.471-4.998-12.416V185.575 H89.08c-3.805,11.993-5.708,24.462-5.708,37.402c0,36.553,13.322,67.715,39.969,93.511c26.65,25.786,58.721,38.685,96.217,38.685 c24.744,0,47.583-5.903,68.527-17.703c20.937-11.807,37.486-27.839,49.676-48.112c12.183-20.272,18.274-42.4,18.274-66.38 c0-12.94-1.91-25.406-5.715-37.402h38.547v185.014H388.865z M388.865,115.626c0,5.52-1.903,10.184-5.716,13.99 c-3.805,3.809-8.466,5.711-13.989,5.711h-49.676c-5.517,0-10.185-1.903-13.99-5.711c-3.806-3.806-5.708-8.47-5.708-13.99V68.522 c0-5.33,1.902-9.945,5.708-13.848c3.806-3.901,8.474-5.854,13.99-5.854h49.676c5.523,0,10.185,1.952,13.989,5.854 c3.812,3.903,5.716,8.518,5.716,13.848V115.626z"/>
</symbol>
<symbol id="flickr" viewBox="0 0 90 90">
<path d="M90,45.004C90,56.047,80.973,65,69.83,65c-11.139,0-20.169-8.953-20.169-19.996 C49.661,33.955,58.691,25,69.83,25C80.973,25,90,33.955,90,45.004z M20.169,25C9.03,25,0,33.955,0,45.004 C0,56.047,9.03,65,20.169,65s20.169-8.953,20.169-19.996C40.338,33.955,31.308,25,20.169,25z"/>
</symbol>
<symbol id="linkedin" viewBox="0 0 430.117 430.117">
<path d="M430.117,261.543V420.56h-92.188V272.193c0-37.271-13.334-62.707-46.703-62.707 c-25.473,0-40.632,17.142-47.301,33.724c-2.432,5.928-3.058,14.179-3.058,22.477V420.56h-92.219c0,0,1.242-251.285,0-277.32h92.21 v39.309c-0.187,0.294-0.43,0.611-0.606,0.896h0.606v-0.896c12.251-18.869,34.13-45.824,83.102-45.824 C384.633,136.724,430.117,176.361,430.117,261.543z M52.183,9.558C20.635,9.558,0,30.251,0,57.463 c0,26.619,20.038,47.94,50.959,47.94h0.616c32.159,0,52.159-21.317,52.159-47.94C103.128,30.251,83.734,9.558,52.183,9.558z M5.477,420.56h92.184v-277.32H5.477V420.56z"/>
</symbol>
<symbol id="pinterest" viewBox="0 0 486.392 486.392">
<path d="M430.149,135.248C416.865,39.125,321.076-9.818,218.873,1.642 C138.071,10.701,57.512,76.03,54.168,169.447c-2.037,57.029,14.136,99.801,68.399,111.84 c23.499-41.586-7.569-50.676-12.433-80.802C90.222,77.367,252.16-6.718,336.975,79.313c58.732,59.583,20.033,242.77-74.57,223.71 c-90.621-18.179,44.383-164.005-27.937-192.611c-58.793-23.286-90.013,71.135-62.137,118.072 c-16.355,80.711-51.557,156.709-37.3,257.909c46.207-33.561,61.802-97.734,74.57-164.704 c23.225,14.136,35.659,28.758,65.268,31.038C384.064,361.207,445.136,243.713,430.149,135.248z"/>
</symbol>
<symbol id="account" viewBox="0 0 25 25">
<path d="M3.001,23.986C3.001,24.543,3.452,25,4.003,25h16.993c0.551,0,1.002-0.457,1.002-1.014 c0-5.604-2.504-10.416-6.025-12.339c1.701-1.131,2.82-3.088,2.82-5.3c0-3.494-2.82-6.348-6.277-6.348 C9.061,0,6.223,2.835,6.223,6.347c0,2.212,1.119,4.152,2.821,5.3C5.505,13.57,3.001,18.383,3.001,23.986z M12.5,2.025 c2.354,0,4.273,1.941,4.273,4.322c0,2.38-1.92,4.321-4.273,4.321c-2.354,0-4.273-1.941-4.273-4.321 C8.227,3.967,10.146,2.025,12.5,2.025z M12.5,12.745c3.906,0,7.111,4.507,7.461,10.23H5.038C5.389,17.252,8.594,12.745,12.5,12.745z"/>
</symbol>
<symbol id="return" viewBox="0 0 880.684 880.685">
<path d="M707.462,818.76l-31.5-137.199c-305.801,15.398-382.7-94.201-382.7-94.201s-109.5-76.799-94.1-382.7l-137.2-31.5 c-60.9,182.3-116,456.7,36.4,609.1C250.862,934.76,525.262,879.66,707.462,818.76z"/>
<path d="M204.362,136.06l8.2-81c2.6-25.3-14.2-48.4-39-53.9c-23.3-5.1-47,7-56.5,28.8c-10.2,23.4-24,56.3-38.5,95.7l124.1,28.5 C203.162,148.26,203.762,142.16,204.362,136.06z"/>
<path d="M850.662,763.66c21.9-9.5,34-33.201,28.801-56.5l0,0c-5.4-24.801-28.601-41.6-53.9-39l-81,8.199 c-6.1,0.6-12.2,1.201-18.2,1.701l28.5,124.1C794.362,787.66,827.262,773.859,850.662,763.66z"/>
</symbol>
<symbol id="rocket" viewBox="0 0 48 48">
<path d="M24,10.802c-2.823,0-5.12,2.289-5.12,5.104c0,2.815,2.297,5.104,5.12,5.104s5.119-2.289,5.119-5.104 C29.119,13.091,26.823,10.802,24,10.802z M24,19.631c-2.061,0-3.736-1.671-3.736-3.726c0-2.054,1.676-3.725,3.736-3.725 s3.736,1.671,3.736,3.725C27.736,17.96,26.061,19.631,24,19.631z M24,13.744c-0.382,0-0.692,0.309-0.692,0.689 c0,0.382,0.31,0.691,0.692,0.691c0.432,0,0.784,0.35,0.784,0.78c0,0.382,0.31,0.69,0.691,0.69s0.692-0.309,0.692-0.69 C26.168,14.714,25.195,13.744,24,13.744z M35.468,35.428l-4.39-6.844c0.608-5.887,0.994-10.934,0.994-13.414 c0-5.141-2.09-8.824-3.842-11.009c-1.901-2.368-3.795-3.516-3.875-3.563c-0.219-0.131-0.493-0.131-0.712,0 c-0.08,0.048-1.973,1.195-3.874,3.563c-1.752,2.185-3.842,5.868-3.842,11.009c0,2.481,0.385,7.527,0.994,13.415l-4.391,6.843 c-0.675,1.057-1.031,2.279-1.031,3.531v7.852c0,0.291,0.184,0.552,0.459,0.649c0.076,0.027,0.155,0.04,0.232,0.04 c0.204,0,0.401-0.089,0.536-0.253l5.639-6.871c0.392,1.156,1.49,1.974,2.75,1.974h2.191v4.461c0,0.381,0.31,0.689,0.692,0.689 c0.382,0,0.692-0.309,0.692-0.689V42.35h2.191c1.262,0,2.359-0.817,2.75-1.974l5.64,6.871c0.134,0.164,0.332,0.253,0.536,0.253 c0.077,0,0.156-0.013,0.232-0.04c0.275-0.098,0.459-0.358,0.459-0.649v-7.852C36.5,37.707,36.143,36.485,35.468,35.428z  M12.884,44.879v-5.92c0-0.989,0.282-1.954,0.814-2.788l3.458-5.39c0.275,2.523,0.585,5.155,0.918,7.771L12.884,44.879z  M29.674,28.721c-0.362,3.474-0.802,7.233-1.284,10.927c-0.099,0.754-0.747,1.322-1.507,1.322h-2.191V29.15 c0-0.381-0.31-0.689-0.692-0.689c-0.382,0-0.692,0.309-0.692,0.689V40.97h-2.191c-0.76,0-1.408-0.568-1.506-1.322 c-0.483-3.692-0.922-7.452-1.284-10.926c-0.001-0.025-0.004-0.051-0.008-0.077c-0.616-5.922-1.007-11.001-1.007-13.475 c0-2.672,0.588-5.151,1.75-7.404h5.676c0.382,0,0.692-0.309,0.692-0.689s-0.31-0.69-0.692-0.69h-4.874 c0.292-0.45,0.609-0.89,0.951-1.319C22.096,3.46,23.392,2.449,24,2.02c0.755,0.535,2.573,1.973,4.124,4.366h-0.434 c-0.382,0-0.691,0.31-0.691,0.69s0.31,0.689,0.691,0.689h1.233c1.013,1.965,1.765,4.426,1.765,7.404 c0,2.474-0.391,7.553-1.006,13.475C29.678,28.671,29.674,28.696,29.674,28.721z M35.116,44.879l-5.19-6.326 c0.334-2.616,0.645-5.249,0.919-7.771l3.456,5.387c0.533,0.837,0.815,1.802,0.815,2.791V44.879z"/>
</symbol>
<symbol id="shuffle" viewBox="0 0 40 40">
<path d="M37.186,10.544l-3.508,3.504l0.861,0.86L39.5,9.954L34.539,5l-0.861,0.861l3.412,3.407H26.194 L13.398,29.498H0.5v1.275h13.601l12.795-20.229H37.186z M18.679,18.786l0.748-1.199l-5.333-8.317H0.5v1.275h12.896L18.679,18.786z M33.639,25.953l3.551,3.545H26.906l-5.107-8.506l-0.772,1.213l5.159,8.568h10.823l-3.37,3.367L34.501,35l4.96-4.953l-4.96-4.955 L33.639,25.953z"/>
</symbol>
<symbol id="support" viewBox="0 0 40 40">
<path d="M34.041,11.351h-2.174C31.45,5.849,26.836,1.5,21.226,1.5h-2.452c-5.611,0-10.225,4.349-10.642,9.851 H5.958C3.775,11.351,2,13.125,2,15.305v6.929c0,2.181,1.775,3.954,3.958,3.954h2.958c0.45,0,0.814-0.364,0.814-0.814V12.164 c0-4.982,4.057-9.036,9.044-9.036h2.452c4.987,0,9.044,4.054,9.044,9.036v13.173c0,3.853-2.436,7.249-6.011,8.518 c-0.515-1.163-1.681-1.979-3.033-1.979c-1.828,0-3.315,1.485-3.315,3.312c0,1.826,1.487,3.312,3.315,3.312 c1.729,0,3.153-1.33,3.302-3.021c4.102-1.329,6.996-5.005,7.336-9.292h2.178c2.184,0,3.959-1.774,3.959-3.954v-6.929 C38,13.125,36.225,11.351,34.041,11.351z M8.101,24.56H5.958c-1.284,0-2.329-1.044-2.329-2.326v-6.929 c0-1.281,1.045-2.326,2.329-2.326h2.143V24.56z M21.226,36.873c-0.93,0-1.686-0.756-1.686-1.685s0.756-1.685,1.686-1.685 s1.686,0.756,1.686,1.685S22.155,36.873,21.226,36.873z M36.371,22.233c0,1.282-1.045,2.326-2.33,2.326h-2.143V12.979h2.143 c1.285,0,2.33,1.045,2.33,2.326V22.233z"/>
</symbol>
<symbol id="gift" viewBox="0 0 32 32">
<path d="M30.666,6.624h-2.689C27.992,6.536,28,6.445,28,6.354V6.344C28,2.846,25.158,0,21.666,0 C19.189,0,17.041,1.432,16,3.513C14.959,1.432,12.81,0,10.333,0C6.841,0,4,2.846,4,6.344v0.011c0,0.092,0.008,0.182,0.023,0.27 h-2.69C0.598,6.624,0,7.222,0,7.956v4.011C0,12.702,0.598,13.3,1.333,13.3v17.367C1.333,31.401,1.932,32,2.667,32h26.667 c0.735,0,1.333-0.599,1.333-1.333V13.3c0.736,0,1.334-0.598,1.334-1.333V7.956C32,7.222,31.402,6.624,30.666,6.624z M21.666,1.333 c2.758,0,5,2.248,5,5.011v0.009c0,0.149-0.126,0.271-0.281,0.271h-9.71c-0.005-0.095-0.008-0.188-0.008-0.28 C16.667,3.581,18.91,1.333,21.666,1.333z M16.667,7.956h1.637l2.59,4.011h-4.227V7.956z M5.333,6.344c0-2.763,2.243-5.011,5-5.011 c2.757,0,5,2.248,5,5.011c0,0.093-0.002,0.186-0.008,0.28h-9.71c-0.155,0-0.282-0.122-0.282-0.27V6.344z M1.333,11.967V7.956h14 v4.011H1.333z M29.333,30.667H2.667V13.3h12.667v9.353c0,0.368,0.299,0.667,0.667,0.667s0.667-0.299,0.667-0.667V13.3h5.087 l3.686,5.707c0.2,0.31,0.613,0.398,0.922,0.198c0.31-0.2,0.398-0.612,0.199-0.922L23.342,13.3h5.991V30.667z M30.666,11.967H22.48 l-2.59-4.011h10.775V11.967z"/>
</symbol>
<symbol id="lock" viewBox="0 0 40 40">
<path d="M28.182,16.141V8.142c0-4.489-3.823-8.141-8.522-8.141c-4.7,0-8.522,3.651-8.522,8.141V10.4 c0,0.389,0.305,0.703,0.682,0.703c0.376,0,0.682-0.314,0.682-0.703V8.142c0-3.716,3.211-6.738,7.159-6.738 c3.947,0,7.159,3.022,7.159,6.738v7.999H5V40h30V16.141H28.182z M33.636,38.597H6.363V35.79h27.272V38.597z M33.636,34.387H6.363 V17.544h27.272V34.387z M20,31.579c1.504,0,2.727-1.259,2.727-2.807v-4.211c0-1.548-1.223-2.807-2.727-2.807 s-2.728,1.259-2.728,2.807v4.211C17.272,30.32,18.496,31.579,20,31.579z M18.636,24.562c0-0.774,0.612-1.402,1.364-1.402 s1.363,0.628,1.363,1.402v4.211c0,0.773-0.611,1.403-1.363,1.403s-1.364-0.63-1.364-1.403V24.562z"/>
</symbol>
<symbol id="back" viewBox="0 0 32 32">
<path d="M17.85,0.004H1.46c-0.377,0-0.683,0.3-0.683,0.671s0.306,0.67,0.683,0.67H17.85 c6.777,0,12.291,5.416,12.291,12.071c0,6.656-5.514,12.071-12.291,12.071H3.109l4.297-4.22l-0.965-0.949l-5.463,5.363 c0,0.002,0,0.002-0.001,0.003l-0.483,0.473l0.482,0.474c0.001,0,0.001,0,0.002,0.002l5.462,5.363l0.966-0.947l-4.297-4.221H17.85 c7.529,0,13.656-6.017,13.656-13.412C31.506,6.021,25.379,0.004,17.85,0.004z"/>
</symbol>
<symbol id="top-arrow-thin" viewBox="0 0 129 129">
<path d="m121.3,34.6c-1.6-1.6-4.2-1.6-5.8,0l-51,51.1-51.1-51.1c-1.6-1.6-4.2-1.6-5.8,0-1.6,1.6-1.6,4.2 0,5.8l53.9,53.9c0.8,0.8 1.8,1.2 2.9,1.2 1,0 2.1-0.4 2.9-1.2l53.9-53.9c1.7-1.6 1.7-4.2 0.1-5.8z"/>
</symbol>
<symbol id="comment" viewBox="0 0 15 15">
<path d="M13.889,10.136c0.396-0.831,0.598-1.716,0.598-2.636c0-3.584-3.134-6.5-6.986-6.5S0.514,3.916,0.514,7.5 S3.647,14,7.5,14c0.988,0,1.94-0.188,2.834-0.557l3.416,0.549C13.783,13.998,13.817,14,13.852,14c0.169,0,0.334-0.066,0.454-0.189 c0.145-0.146,0.208-0.353,0.17-0.555L13.889,10.136z M12.602,10.16l0.46,2.447l-2.708-0.435c-0.122-0.021-0.248-0.004-0.361,0.047 c-0.78,0.347-1.618,0.522-2.492,0.522c-3.152,0-5.717-2.353-5.717-5.242S4.348,2.258,7.5,2.258c3.151,0,5.716,2.353,5.716,5.242 c0,0.79-0.187,1.549-0.555,2.256C12.597,9.881,12.575,10.021,12.602,10.16z"/>
</symbol>
<symbol id="like" viewBox="0 0 60 60">
<path d="M41.839,5.827a13.988,13.988,0,0,0-11.984,6.9,13.48,13.48,0,0,0-11.7-6.906c-7.4,0-13.313,6.061-14.071,14.415a14.864,14.864,0,0,0,.442,5.478,23.5,23.5,0,0,0,7.2,12.013L29.843,54.171,48.269,37.733a23.5,23.5,0,0,0,7.2-12.014,14.9,14.9,0,0,0,.443-5.477C55.152,11.888,49.239,5.827,41.839,5.827Z"/>
</symbol>
<symbol id="visa" viewBox="0 0 56.48 56.48">
<path d="M55.026,9.939H1.454C0.65,9.939,0,10.59,0,11.393v33.695c0,0.803,0.65,1.454,1.454,1.454h53.572
c0.804,0,1.454-0.651,1.454-1.454V11.393C56.48,10.59,55.83,9.939,55.026,9.939z M4.373,21h6.028 c0.813,0.031,1.468,0.29,1.694,1.159l1.311,6.305c-1.288-3.298-4.392-6.042-9.083-7.178L4.373,21z M11.667,35.38L8.185,23.484 c2.503,1.602,4.635,4.144,5.386,5.913l0.406,1.469l3.808-9.729h4.12l-6.123,14.24L11.667,35.38z M24.933,35.392h-3.888 l2.431-14.268h3.89L24.933,35.392z M31.699,35.605c-1.743-0.018-3.422-0.363-4.332-0.762l0.547-3.193l0.501,0.227 c1.277,0.533,2.104,0.749,3.661,0.749c1.117,0,2.314-0.437,2.325-1.393c0.007-0.625-0.501-1.071-2.015-1.771
c-1.476-0.682-3.43-1.826-3.406-3.875c0.021-2.773,2.729-4.708,6.572-4.708c1.506,0,2.713,0.31,3.483,0.599L38.51,24.57 l-0.351-0.165c-0.716-0.288-1.637-0.566-2.91-0.546c-1.522,0-2.228,0.634-2.228,1.227c-0.008,0.668,0.824,1.108,2.184,1.77 c2.243,1.018,3.28,2.253,3.266,3.876C38.441,33.692,35.788,35.605,31.699,35.605z M48.549,35.397c0,0-0.355-1.64-0.473-2.138 c-0.566,0-4.534-0.006-4.98-0.006c-0.151,0.385-0.817,2.144-0.817,2.144h-4.083l5.773-13.075c0.41-0.929,1.105-1.184,2.037-1.184 h3.004l3.147,14.258L48.549,35.397L48.549,35.397z"/>
<path d="M46.28,24.985c-0.198,0.537-0.539,1.4-0.517,1.362c0,0-1.229,3.167-1.549,3.988h3.229c-0.156-0.714-0.901-4.12-0.901-4.12 L46.28,24.985z"/>
</symbol>
<symbol id="maestro" viewBox="0 0 56.48 56.48">
<path d="M27.168,31.824c0.594,0,1.167-0.075,1.741-0.229l0.286-1.422c-0.614,0.25-1.167,0.361-1.782,0.361
c-0.983,0-1.495-0.335-1.495-0.993c0-0.053,0-0.092,0.021-0.179h3.398c0.145-0.576,0.207-0.984,0.207-1.404
c0-1.259-0.902-2.062-2.314-2.062c-1.721,0-2.99,1.435-2.99,3.382C24.239,30.952,25.243,31.824,27.168,31.824z M27.209,27.195 c0.512,0,0.799,0.269,0.799,0.73c0,0.076,0,0.17,0,0.292l-1.905-0.002C26.267,27.555,26.657,27.195,27.209,27.195z M36.078,29.788 c-0.021,0.104-0.021,0.183-0.021,0.235c0,0.294,0.186,0.42,0.595,0.42c0.185,0,0.329-0.018,0.45-0.055l-0.225,1.26 c-0.471,0.129-0.84,0.185-1.229,0.185c-0.881,0-1.352-0.442-1.352-1.248c0-0.159,0.02-0.329,0.041-0.509l0.103-0.559l0.082-0.449 l0.799-4.336h1.7l-0.246,1.304h0.88l-0.246,1.382h-0.881L36.078,29.788z M32.678,25.91c0.41,0,1.086,0.05,1.537,0.112l-0.246,1.313 c-0.451-0.053-0.901-0.083-1.25-0.083c-0.554,0-0.84,0.156-0.84,0.461c0,0.266,0.082,0.331,0.799,0.618
c0.881,0.346,1.229,0.801,1.229,1.581c0,1.295-0.84,1.894-2.684,1.894c-0.226,0-0.532-0.017-0.941-0.047
c-0.205-0.014-0.369-0.031-0.471-0.051l-0.307-0.056l-0.082-0.015l0.245-1.31c0.554,0.154,1.024,0.224,1.558,0.224 c0.676,0,0.982-0.16,0.982-0.512c0-0.26-0.104-0.344-0.799-0.627c-0.921-0.372-1.331-0.867-1.331-1.583
C30.076,26.783,30.754,25.91,32.678,25.91z M24.818,34.362h6.843c-0.25,0.536-0.532,1.053-0.844,1.552h-5.143
C25.362,35.413,25.069,34.9,24.818,34.362z M21.678,25.91c-0.635,0-1.188,0.081-2.048,0.299l-0.225,1.279l0.143-0.037l0.246-0.062 c0.368-0.098,0.921-0.157,1.413-0.157c0.798,0,1.106,0.14,1.106,0.515c0,0.104-0.021,0.182-0.062,0.369
c-0.266-0.028-0.512-0.044-0.696-0.044c-1.904,0-3.01,0.809-3.01,2.189c0,0.918,0.635,1.551,1.557,1.551
c0.778,0,1.373-0.219,1.802-0.686l-0.041,0.588h1.433l0.02-0.154l0.021-0.195l0.041-0.288l0.061-0.36l0.369-2.018 c0.103-0.632,0.123-0.845,0.123-1.125C23.931,26.487,23.153,25.91,21.678,25.91z M20.819,30.608c-0.389,0-0.614-0.228-0.614-0.579 c0-0.574,0.492-0.864,1.454-0.864c0.123,0,0.205,0.003,0.39,0.022C22.007,30.026,21.515,30.608,20.819,30.608z M28.272,38.958 c-0.012,0.012-0.025,0.021-0.037,0.032c-0.537-0.485-1.023-1.022-1.482-1.584h2.993c-0.451,0.553-0.944,1.071-1.472,1.552H28.272 L28.272,38.958z M30.799,20.539h-4.913c0.315-0.52,0.663-1.052,1.033-1.552h2.754C30.081,19.479,30.458,19.997,30.799,20.539z
 M32.26,23.615h-8.014c0.079-0.15,0.359-0.754,0.781-1.553h6.607C31.871,22.564,32.079,23.082,32.26,23.615z M19.077,24.733 l-1.352,6.983h-1.72l1.024-5.37l-2.355,5.37h-1.557l-0.287-5.335l-1.024,5.335H10.25l1.332-6.983h2.683l0.123,4.325l1.905-4.325 H19.077z M47.527,31.097c-0.041-0.02-0.082-0.022-0.102-0.022h-0.164v0.392h0.082v-0.153h0.061l0.062,0.153h0.102l-0.061-0.17 c0.041-0.018,0.061-0.06,0.061-0.102C47.567,31.157,47.547,31.117,47.527,31.097z M47.445,31.238 c-0.02,0.008-0.041,0.008-0.041,0.008h-0.062v-0.102h0.043c0.02,0,0.061,0,0.061,0.009c0.021,0.008,0.021,0.024,0.021,0.039 C47.467,31.209,47.465,31.228,47.445,31.238z M51.122,36.091c-0.041-0.02-0.082-0.022-0.103-0.022h-0.163v0.392h0.082v-0.154h0.061 l0.062,0.154h0.103l-0.062-0.171c0.041-0.017,0.062-0.059,0.062-0.101C51.162,36.15,51.143,36.111,51.122,36.091z M51.04,36.231 c-0.021,0.008-0.041,0.008-0.041,0.008h-0.062v-0.101h0.041c0.021,0,0.062,0,0.062,0.008c0.021,0.008,0.021,0.025,0.021,0.039 C51.061,36.203,51.061,36.222,51.04,36.231z M55.026,9.939H1.454C0.65,9.939,0,10.59,0,11.393v33.695 c0,0.803,0.65,1.454,1.454,1.454h53.572c0.804,0,1.454-0.651,1.454-1.454V11.393C56.48,10.59,55.83,9.939,55.026,9.939z M51.409,36.519c-0.042,0.076-0.099,0.134-0.173,0.175s-0.152,0.062-0.232,0.062c-0.082,0-0.16-0.021-0.234-0.062 c-0.073-0.041-0.131-0.099-0.174-0.175c-0.041-0.073-0.062-0.151-0.062-0.232s0.021-0.158,0.063-0.234
c0.041-0.076,0.101-0.133,0.175-0.174c0.075-0.039,0.151-0.06,0.231-0.06c0.079,0,0.155,0.021,0.229,0.06
c0.075,0.041,0.134,0.098,0.175,0.174c0.042,0.076,0.062,0.154,0.062,0.234S51.451,36.447,51.409,36.519z M52.457,28.241 c0.002,8.005-6.484,14.497-14.49,14.499c-3.744,0.001-7.158-1.418-9.73-3.749c-2.572,2.327-5.979,3.745-9.717,3.745 c-8.001,0-14.495-6.493-14.495-14.495c0-7.97,6.443-14.444,14.402-14.496c0.031,0,0.062,0,0.093,0c3.738,0,7.146,1.418,9.718,3.745 c2.571-2.328,5.981-3.747,9.722-3.748c8.006-0.003,14.497,6.486,14.499,14.492C52.457,28.236,52.457,28.238,52.457,28.241z M47.404,30.829c-0.246,0-0.451,0.199-0.451,0.442c0,0.246,0.205,0.445,0.451,0.445s0.451-0.199,0.451-0.445
C47.855,31.028,47.65,30.829,47.404,30.829z M47.404,31.61c-0.184,0-0.348-0.151-0.348-0.339c0-0.186,0.164-0.336,0.348-0.336 c0.186,0,0.328,0.15,0.328,0.336C47.732,31.458,47.59,31.61,47.404,31.61z M47.262,28.437c0-1.441-0.942-2.563-2.725-2.563 c-2.048,0-3.379,1.365-3.379,3.376c0,1.441,0.777,2.619,2.725,2.619c1.76,0,3.071-0.839,3.338-2.727
C47.262,28.812,47.262,28.789,47.262,28.437z M45.377,29.093c-0.143,0.885-0.941,1.392-1.31,1.392 c-0.615,0.012-0.983-0.507-0.983-1.278c0-0.912,0.532-1.947,1.413-1.947c0.696,0,0.941,0.563,0.941,1.155 C45.438,28.661,45.418,28.886,45.377,29.093z M41.26,27.69l-0.205-0.042c-0.082-0.009-0.143-0.014-0.205-0.014 c-0.819,0-1.084,0.61-1.699,4.083H37.43l1.045-5.68h1.557l-0.164,0.862c0.532-0.671,0.941-0.923,1.495-0.923
c0.062,0,0.124,0.005,0.185,0.014c0,0.003,0.062,0.014,0.145,0.034c0.02,0.006,0.041,0.006,0.184,0.062L41.26,27.69z"/>
</symbol>
<symbol id="mastercard" viewBox="0 0 56.48 56.48">
<path d="M15.051,25.813c-1.058,0-1.869,0.34-1.869,0.34l-0.224,1.33c0,0,0.669-0.272,1.682-0.272c0.575,0,0.995,0.064,0.995,0.531 c0,0.284-0.051,0.389-0.051,0.389s-0.453-0.037-0.663-0.037c-1.335,0-2.737,0.568-2.737,2.287c0,1.354,0.919,1.663,1.49,1.663 c1.089,0,1.559-0.706,1.583-0.708l-0.051,0.59h1.359l0.606-4.25C17.17,25.871,15.597,25.813,15.051,25.813z M14.289,30.75 c-0.479,0-0.604-0.365-0.604-0.583c0-0.422,0.229-0.93,1.36-0.93c0.264,0.001,0.292,0.028,0.336,0.036 C15.411,29.533,15.219,30.75,14.289,30.75z M19.11,27.741c0,0.771,1.839,0.392,1.839,2.31c0,2.051-1.987,1.961-2.334,1.961 c-1.295,0-1.695-0.178-1.732-0.188l0.206-1.351c0.002-0.01,0.65,0.236,1.371,0.236c0.416,0,0.956-0.041,0.956-0.537 c0-0.746-1.932-0.566-1.932-2.334c0-1.559,1.158-2.015,2.3-2.015c0.882,0,1.424,0.121,1.424,0.121l-0.195,1.362 c0,0-0.837-0.069-1.054-0.069C19.409,27.238,19.11,27.358,19.11,27.741z M22.773,30.089c-0.034,0.211,0.025,0.498,0.562,0.498 c0.137,0,0.292-0.046,0.398-0.046l-0.193,1.312c-0.155,0.043-0.594,0.199-1.157,0.203c-0.719,0.007-1.23-0.397-1.23-1.308 c0-0.612,0.877-5.655,0.911-5.688h1.543l-0.157,0.9h0.77l-0.197,1.452h-0.817L22.773,30.089z M28.727,29.452 c0,0,0.203-1,0.203-1.407c0-1.017-0.506-2.257-2.2-2.257c-1.552,0.001-2.701,1.673-2.701,3.563c0,2.181,1.439,2.699,2.666,2.699 c1.132,0,1.63-0.254,1.63-0.254l0.272-1.488c0,0-0.861,0.38-1.639,0.38c-1.657,0-1.367-1.236-1.367-1.236H28.727z M26.735,27.171 c0.871,0,0.71,0.979,0.71,1.057h-1.713C25.732,28.128,25.894,27.171,26.735,27.171z M12.737,24.583l-1.217,7.35H9.94l0.879-5.541 l-1.983,5.541H7.773l-0.138-5.541l-0.939,5.541H5.207l1.234-7.35h2.252l0.079,4.51l1.521-4.51H12.737z M32.26,23.615h-8.014 c0.079-0.15,0.359-0.754,0.781-1.553h6.607C31.871,22.564,32.079,23.082,32.26,23.615z M30.799,20.539h-4.913 c0.315-0.52,0.663-1.052,1.033-1.552h2.754C30.081,19.479,30.458,19.997,30.799,20.539z M28.235,38.991 c-0.537-0.485-1.023-1.022-1.482-1.584h2.993c-0.451,0.553-0.944,1.071-1.472,1.552h-0.003c0,0.001,0.001,0.001,0.001,0.001 C28.26,38.97,28.247,38.98,28.235,38.991z M30.817,35.913h-5.143c-0.313-0.5-0.605-1.013-0.856-1.552h6.843 C31.41,34.897,31.129,35.415,30.817,35.913z M32.651,25.905c-0.205,0.418-0.386,0.801-0.574,1.79 c-1.071-0.379-1.155,1.695-1.604,4.25h-1.584l0.963-5.982h1.437L31.15,26.83c0,0,0.512-0.943,1.203-0.943 C32.555,25.885,32.651,25.905,32.651,25.905z M35.508,30.548c0.52,0,1.276-0.379,1.276-0.379l-0.276,1.684 c0,0-0.83,0.211-1.35,0.211c-1.842,0-2.777-1.271-2.777-3.196c0-2.903,1.733-4.449,3.514-4.449c0.804,0,1.738,0.378,1.738,0.378 l-0.252,1.635c0,0-0.631-0.441-1.416-0.441c-1.05,0-1.992,1.002-1.992,2.824C33.973,29.712,34.412,30.548,35.508,30.548z M50.574,31.082c-0.075,0.04-0.133,0.098-0.175,0.174c-0.042,0.075-0.063,0.153-0.063,0.234s0.021,0.158,0.063,0.232 c0.041,0.074,0.099,0.133,0.173,0.175c0.075,0.041,0.152,0.062,0.232,0.062c0.082,0,0.16-0.021,0.233-0.062 c0.074-0.042,0.132-0.101,0.173-0.175c0.043-0.074,0.062-0.151,0.062-0.232c0-0.082-0.02-0.16-0.062-0.234 c-0.041-0.076-0.101-0.134-0.176-0.174c-0.074-0.041-0.15-0.061-0.23-0.061C50.727,31.021,50.65,31.041,50.574,31.082z M51.143,31.293c0.035,0.063,0.054,0.128,0.054,0.195s-0.017,0.133-0.052,0.194c-0.034,0.062-0.082,0.109-0.145,0.146 c-0.062,0.034-0.126,0.052-0.193,0.052c-0.068,0-0.133-0.018-0.194-0.052c-0.063-0.035-0.11-0.083-0.146-0.146 s-0.052-0.127-0.052-0.194s0.017-0.132,0.054-0.195c0.035-0.062,0.082-0.11,0.146-0.145s0.127-0.05,0.192-0.05 s0.129,0.017,0.19,0.05C51.061,31.183,51.108,31.23,51.143,31.293z M44.877,29.517c0,1.265,0.629,2.504,1.913,2.504 c0.925,0,1.437-0.645,1.437-0.645l-0.067,0.551h1.501l1.18-7.339l-1.548,0.003l-0.333,2.065c0,0-0.58-0.803-1.49-0.803 C46.055,25.854,44.877,27.559,44.877,29.517z M48.575,28.618c0,0.815-0.403,1.904-1.239,1.904c-0.556,0-0.816-0.466-0.816-1.198 c0-1.197,0.537-1.986,1.216-1.986C48.29,27.339,48.575,27.72,48.575,28.618z M51.086,36.347c-0.011-0.01-0.025-0.021-0.043-0.026 c0.043-0.003,0.079-0.019,0.105-0.046c0.025-0.027,0.039-0.059,0.039-0.096c0-0.026-0.008-0.051-0.023-0.074 s-0.037-0.04-0.064-0.049c-0.025-0.01-0.068-0.015-0.127-0.015h-0.174v0.505l0,0h0.082v-0.215h0.047 c0.028,0,0.051,0.006,0.064,0.018c0.021,0.017,0.051,0.056,0.086,0.117l0.044,0.08h0.101l-0.062-0.099 C51.131,36.401,51.106,36.368,51.086,36.347z M50.979,36.263h-0.1v-0.152h0.094c0.039,0,0.065,0.003,0.08,0.009 c0.016,0.006,0.026,0.015,0.035,0.026c0.008,0.012,0.012,0.025,0.012,0.039c0,0.023-0.008,0.043-0.025,0.057 S51.025,36.263,50.979,36.263z M55.026,9.939H1.454C0.65,9.939,0,10.59,0,11.393v33.695c0,0.803,0.65,1.454,1.454,1.454h53.572 c0.804,0,1.454-0.651,1.454-1.454V11.393C56.48,10.59,55.83,9.939,55.026,9.939z M51.409,36.519 c-0.042,0.076-0.099,0.134-0.173,0.175s-0.152,0.062-0.232,0.062c-0.082,0-0.16-0.021-0.234-0.062 c-0.073-0.041-0.131-0.099-0.174-0.175c-0.041-0.073-0.062-0.151-0.062-0.232s0.021-0.158,0.063-0.234 c0.041-0.076,0.101-0.133,0.175-0.174c0.075-0.039,0.151-0.06,0.231-0.06c0.079,0,0.155,0.021,0.229,0.06 c0.075,0.041,0.134,0.098,0.175,0.174c0.042,0.076,0.062,0.154,0.062,0.234S51.451,36.447,51.409,36.519z M52.457,28.241 c0.002,8.005-6.484,14.497-14.49,14.499c-3.744,0.001-7.158-1.418-9.73-3.749c-2.572,2.327-5.979,3.745-9.717,3.745 c-8.001,0-14.495-6.493-14.495-14.495c0-7.97,6.443-14.444,14.402-14.496c0.031,0,0.062,0,0.093,0c3.738,0,7.146,1.418,9.718,3.745 c2.571-2.328,5.981-3.747,9.722-3.748c8.006-0.003,14.497,6.486,14.499,14.492C52.457,28.236,52.457,28.238,52.457,28.241z M50.6,31.244v0.504h0.082v-0.214h0.047c0.029,0,0.052,0.006,0.066,0.017c0.021,0.018,0.049,0.056,0.086,0.119l0.043,0.079h0.101 l-0.062-0.099c-0.029-0.047-0.055-0.08-0.074-0.1c-0.012-0.011-0.025-0.02-0.043-0.026c0.043-0.003,0.078-0.019,0.104-0.046 c0.025-0.026,0.04-0.06,0.04-0.096c0-0.025-0.008-0.051-0.024-0.074c-0.016-0.022-0.037-0.039-0.062-0.049 s-0.069-0.015-0.128-0.015L50.6,31.244L50.6,31.244z M50.891,31.347c0.009,0.013,0.013,0.024,0.013,0.041 c0,0.022-0.009,0.041-0.024,0.055c-0.019,0.015-0.05,0.021-0.097,0.021h-0.099v-0.152h0.092c0.04,0,0.066,0.003,0.082,0.008 C50.871,31.327,50.883,31.334,50.891,31.347z M40.069,25.813c-1.06,0-1.87,0.34-1.87,0.34l-0.225,1.33c0,0,0.67-0.272,1.682-0.272 c0.575,0,0.996,0.064,0.996,0.531c0,0.284-0.053,0.389-0.053,0.389s-0.452-0.037-0.664-0.037c-1.334,0-2.735,0.568-2.735,2.287 c0,1.354,0.92,1.663,1.49,1.663c1.088,0,1.558-0.706,1.583-0.708l-0.051,0.59h1.358l0.606-4.25 C42.189,25.871,40.615,25.813,40.069,25.813z M39.309,30.75c-0.48,0-0.604-0.365-0.604-0.583c0-0.422,0.229-0.93,1.36-0.93 c0.263,0.001,0.291,0.028,0.336,0.036C40.43,29.533,40.237,30.75,39.309,30.75z M45.034,27.694 c-1.071-0.379-1.153,1.694-1.604,4.25h-1.584l0.963-5.982h1.438l-0.138,0.867c0,0,0.513-0.943,1.204-0.943 c0.201,0,0.297,0.02,0.297,0.02C45.405,26.323,45.223,26.706,45.034,27.694z"/>
</symbol>
<symbol id="amexpress" viewBox="0 0 474.172 474.172">
<path d="M112.938,207.421h-0.309c-1.528,4.227-3.186,8.576-5.186,12.9l-10.079,20.655h30.986 l-10.079-20.541C116.003,215.761,114.467,211.534,112.938,207.421z"/>
<path d="M0,91.938v290.296h474.172V91.938H0z M142.087,270.612l-10.99-22.443H94.617l-10.673,22.443 H70.215l34.953-71.361h16.013l35.107,71.361H142.087z M248.686,270.612l-2.593-31.328c-0.78-9.974-1.707-21.923-1.553-30.807 h-0.439c-3.528,8.34-7.779,17.257-12.981,27.101L212.96,270.19h-10.079l-16.631-33.994c-4.869-10.055-8.99-19.281-11.892-27.727 h-0.317c-0.309,8.885-1.057,20.834-1.992,31.531l-2.723,30.604h-12.697l7.178-71.361h16.94l17.541,34.514 c4.3,8.787,7.795,16.639,10.388,24.02h0.471c2.585-7.178,6.243-15.03,10.827-24.02l18.322-34.514h16.94l6.405,71.361h-12.957 V270.612z M390.684,270.612l-13.128-15.778c-5.34-6.04-8.706-9.958-11.925-14.071h-0.284c-2.894,4.113-5.804,7.925-11.136,14.176 l-12.38,15.68h-13.298v-2.252l-1.967,2.252h-55.86V199.26h55.551v7.722h-42.285v22.565h39.976v7.625h-39.976v25.727h44.561v5.471 l29.49-33.839l-30.214-35.262h15.412l13.575,16.737c3.812,4.641,6.714,8.242,9.462,12.071h0.463 c2.878-4.243,5.495-7.535,9.307-12.071l14.046-16.737h15.265l-31.279,34.717l32.018,36.635h-15.395V270.612z"/>
</symbol>
<symbol id="discover" viewBox="0 0 56.48 56.48">
<path d="M10.93,25.051c0.449,0.399,0.719,1.018,0.719,1.654c0,0.638-0.27,1.275-0.719,1.674c-0.406,0.367-0.936,0.528-1.771,0.528 H8.811v-4.394h0.348C9.995,24.513,10.503,24.664,10.93,25.051z M48.532,23.765c0-0.232,0.181-0.418,0.403-0.418 c0.224,0,0.404,0.189,0.404,0.418s-0.182,0.417-0.404,0.417C48.715,24.182,48.532,23.997,48.532,23.765z M48.723,24.057h0.14 v-0.226l0.164,0.227h0.17l-0.19-0.24c0.082-0.022,0.127-0.082,0.127-0.163c0-0.117-0.08-0.181-0.222-0.181h-0.188V24.057z M56.48,11.393v33.695c0,0.803-0.65,1.454-1.454,1.454H1.454C0.65,46.542,0,45.89,0,45.087V11.393c0-0.803,0.65-1.454,1.454-1.454 h53.572C55.83,9.939,56.48,10.59,56.48,11.393z M48.43,23.764c0,0.282,0.228,0.509,0.511,0.509c0.274,0,0.502-0.229,0.502-0.509 c0-0.278-0.228-0.509-0.502-0.509C48.655,23.256,48.43,23.481,48.43,23.764z M44.09,30.032h1.295v-2.67h0.168l1.793,2.67h1.595 l-2.093-2.799c0.976-0.199,1.515-0.866,1.515-1.884c0-1.244-0.856-1.962-2.353-1.962h-1.922v6.645H44.09z M39.555,30.032h3.674 v-1.125H40.85v-1.794h2.293v-1.125H40.85v-1.475h2.379v-1.126h-3.674V30.032z M32.583,23.387l2.82,6.814h0.694l2.871-6.814h-1.403 L35.77,27.85l-1.771-4.463H32.583z M25.919,26.734c0,1.951,1.582,3.533,3.533,3.533c1.586,0,2.931-1.045,3.375-2.483 c0.021-0.061,0.033-0.123,0.05-0.184c0.012-0.052,0.028-0.103,0.038-0.154c0.048-0.23,0.072-0.469,0.072-0.714 c0-1.951-1.582-3.533-3.535-3.533c-1.463,0-2.721,0.89-3.256,2.159C26.016,25.781,25.919,26.246,25.919,26.734z M20.364,26.715 c0,1.952,1.533,3.466,3.506,3.466c0.559,0,1.037-0.108,1.625-0.388v-1.524c-0.518,0.519-0.977,0.729-1.564,0.729 c-1.305,0-2.23-0.947-2.23-2.292c0-1.275,0.955-2.282,2.17-2.282c0.619,0,1.088,0.221,1.625,0.748v-1.524 c-0.568-0.289-1.037-0.408-1.594-0.408C21.938,23.238,20.364,24.783,20.364,26.715z M12.983,26.715 c0-1.961-1.465-3.327-3.566-3.327h-1.9v6.645H9.41c1.004,0,1.73-0.238,2.369-0.768C12.536,28.636,12.983,27.692,12.983,26.715z M14.876,23.387h-1.295v6.645h1.295V23.387z M19.956,28.009c0-1.055-0.438-1.533-1.91-2.071c-0.779-0.287-1.008-0.479-1.008-0.836 c0-0.419,0.408-0.737,0.967-0.737c0.387,0,0.707,0.16,1.045,0.539l0.678-0.889c-0.559-0.487-1.225-0.736-1.953-0.736 c-1.176,0-2.07,0.816-2.07,1.903c0,0.915,0.416,1.384,1.633,1.822c0.508,0.179,0.766,0.298,0.896,0.378 c0.26,0.169,0.389,0.409,0.389,0.688c0,0.538-0.428,0.938-1.006,0.938c-0.617,0-1.117-0.31-1.414-0.887l-0.838,0.807 c0.598,0.877,1.314,1.266,2.299,1.266C19.011,30.191,19.956,29.296,19.956,28.009z M55.465,32.81c0,0-12.455,8.789-35.269,12.723 h35.269V32.81z M47.028,25.418c0-0.646-0.438-0.984-1.246-0.984h-0.397v2.012h0.377C46.59,26.446,47.028,26.087,47.028,25.418z M48.993,23.656c0-0.05-0.035-0.075-0.104-0.075h-0.025v0.152h0.023C48.956,23.733,48.993,23.708,48.993,23.656z"/>
</symbol>
<symbol id="paypal" viewBox="0 0 56.48 56.48">
<path d="M33.372,24.888c0.228,0.15,0.337,0.385,0.343,0.697c0.002,0.479-0.176,0.843-0.526,1.104 c-0.354,0.254-0.845,0.384-1.478,0.384H31.42c-0.253,0.002-0.416-0.202-0.359-0.446l0.354-1.519 c0.052-0.243,0.308-0.447,0.56-0.445l0.381-0.002C32.805,24.663,33.141,24.738,33.372,24.888z M17.505,28.46 c-0.3,0.043-0.56,0.103-0.771,0.174l-0.496,0.338c-0.116,0.146-0.171,0.332-0.171,0.571l0.226,0.438 c0.153,0.086,0.379,0.128,0.667,0.128c0.19,0,0.396-0.046,0.612-0.134l0.46-0.237l0.182-0.242c0.072-0.282,0.221-0.909,0.238-0.987 l-0.081-0.144C18.302,28.367,17.773,28.427,17.505,28.46z M38.768,28.466c-0.303,0.043-0.562,0.102-0.771,0.174 c-0.214,0.084-0.388,0.197-0.501,0.338c-0.112,0.146-0.168,0.332-0.168,0.572l0.229,0.437c0.146,0.087,0.369,0.129,0.666,0.129 c0.187,0,0.393-0.046,0.608-0.133l0.457-0.237l0.188-0.242c0.07-0.285,0.222-0.91,0.234-0.988l-0.082-0.145 C39.559,28.371,39.032,28.433,38.768,28.466z M11.103,24.635l-0.383,0.002c-0.251-0.002-0.508,0.2-0.557,0.444l-0.353,1.52 c-0.055,0.246,0.102,0.447,0.356,0.447h0.286c0.635,0,1.127-0.129,1.48-0.389c0.353-0.258,0.534-0.625,0.526-1.1 c0.002-0.313-0.111-0.549-0.337-0.698C11.892,24.712,11.551,24.635,11.103,24.635z M56.48,11.393v33.695 c0,0.803-0.65,1.454-1.454,1.454H1.454C0.65,46.542,0,45.89,0,45.087V11.393c0-0.803,0.65-1.454,1.454-1.454h53.572 C55.83,9.939,56.48,10.59,56.48,11.393z M14.681,25.374c0-0.42-0.069-0.773-0.225-1.055c-0.14-0.282-0.363-0.515-0.639-0.689 c-0.288-0.176-0.628-0.3-1.018-0.374c-0.396-0.072-0.853-0.104-1.381-0.109l-2.444,0.001c-0.254,0.004-0.503,0.201-0.563,0.447 l-1.645,7.163C6.706,31,6.865,31.204,7.119,31.204h1.17c0.254,0,0.505-0.198,0.562-0.446l0.402-1.738 c0.053-0.242,0.304-0.444,0.561-0.444h0.334c1.432-0.002,2.54-0.294,3.336-0.88C14.286,27.109,14.681,26.333,14.681,25.374z M20.767,26.5c0.002-0.521-0.224-0.909-0.667-1.157c-0.441-0.249-1.139-0.373-2.092-0.373c-0.471,0-0.941,0.037-1.416,0.11 c-0.351,0.054-0.385,0.063-0.6,0.111c-0.445,0.097-0.515,0.542-0.515,0.542l-0.143,0.589c-0.081,0.376,0.136,0.361,0.226,0.33 c0.194-0.058,0.303-0.117,0.7-0.207c0.379-0.086,0.779-0.151,1.097-0.147c0.468,0,0.826,0.05,1.064,0.15 c0.235,0.103,0.353,0.278,0.353,0.532l-0.021,0.165l-0.168,0.104c-0.665,0.042-1.145,0.103-1.727,0.187 c-0.57,0.079-1.069,0.219-1.484,0.408c-0.446,0.196-0.776,0.458-1.007,0.794c-0.223,0.338-0.334,0.744-0.334,1.224 c0,0.452,0.162,0.821,0.476,1.11c0.316,0.283,0.734,0.42,1.233,0.42c0.316,0,0.561-0.025,0.735-0.067l0.566-0.194l0.48-0.268 l0.441-0.291l0.006,0.007l-0.044,0.188l-0.002,0.007v0.002c-0.048,0.228,0.09,0.417,0.313,0.438l0.004,0.004h0.021h0.898h0.169 l0.016-0.006c0.233-0.027,0.453-0.216,0.503-0.438l0.854-3.692l0.044-0.301L20.767,26.5z M23.359,33.612l4.664-7.887 c0,0,0.448-0.674,0.032-0.668c-0.277,0.003-1.404,0-1.404,0c-0.252,0-0.576,0.205-0.736,0.447c0,0-1.676,2.876-1.839,3.165 l-0.194-0.002l-0.522-3.143c-0.058-0.248-0.316-0.459-0.637-0.459l-1.049,0.002c-0.252,0-0.408,0.201-0.35,0.446 c0,0,0.796,4.532,0.956,5.598c0.074,0.59-0.009,0.693-0.009,0.693l-1.037,1.808c-0.154,0.246-0.071,0.446,0.181,0.446l1.212-0.002 C22.877,34.056,23.209,33.858,23.359,33.612z M35.936,25.4c-0.002-0.42-0.075-0.774-0.225-1.054 c-0.146-0.284-0.365-0.513-0.644-0.692c-0.284-0.177-0.624-0.301-1.019-0.373c-0.388-0.069-0.85-0.106-1.375-0.108l-2.447,0.002 c-0.254,0.004-0.5,0.202-0.56,0.445l-1.646,7.167c-0.06,0.243,0.104,0.445,0.353,0.444l1.173-0.003 c0.248,0.003,0.504-0.197,0.562-0.44l0.396-1.741c0.058-0.242,0.31-0.447,0.562-0.443h0.334c1.432,0,2.545-0.295,3.344-0.878 C35.535,27.133,35.936,26.36,35.936,25.4z M42.029,26.504c0-0.521-0.223-0.907-0.669-1.155c-0.445-0.249-1.142-0.375-2.091-0.375 c-0.471,0-0.944,0.037-1.416,0.113c-0.35,0.051-0.385,0.062-0.602,0.109c-0.447,0.096-0.514,0.542-0.514,0.542l-0.143,0.588 c-0.08,0.376,0.131,0.359,0.229,0.33c0.193-0.058,0.3-0.115,0.695-0.207c0.378-0.085,0.779-0.149,1.099-0.147 c0.466,0,0.824,0.05,1.062,0.151c0.238,0.102,0.354,0.279,0.354,0.531l-0.018,0.165l-0.168,0.106 c-0.67,0.041-1.15,0.102-1.728,0.186c-0.567,0.08-1.069,0.218-1.487,0.408c-0.442,0.198-0.777,0.459-1.006,0.795 c-0.224,0.336-0.335,0.744-0.335,1.221c0,0.454,0.163,0.825,0.479,1.111c0.318,0.281,0.732,0.423,1.232,0.423 c0.313-0.005,0.559-0.024,0.733-0.069l0.565-0.191l0.483-0.267l0.438-0.295l0.007,0.009l-0.039,0.188l-0.005,0.004l0.002,0.003 c-0.055,0.229,0.085,0.417,0.312,0.438l0.002,0.006h0.021l0,0c0.147,0,0.657,0,0.899,0h0.168l0.016-0.006 c0.23-0.028,0.451-0.217,0.499-0.44l0.856-3.689l0.043-0.303L42.029,26.504z M45.749,23.677c0.054-0.244-0.099-0.443-0.354-0.443 h-1.047c-0.215,0-0.409,0.159-0.504,0.355l-0.059,0.091l-0.052,0.232l-1.466,6.662l-0.047,0.205l0.002,0.005 c-0.049,0.218,0.086,0.385,0.293,0.417l0.02,0.025h1.088c0.215,0,0.413-0.162,0.506-0.362l0.055-0.084l1.568-7.101L45.749,23.677z M47.83,22.749h-0.392v-0.325h-0.193v0.325h-0.132v0.162h0.132v0.606l0.091,0.3l0.266,0.095l0.111-0.009l0.117-0.023v-0.171h-0.009 l-0.073,0.022l-0.098,0.014l-0.12-0.019l-0.062-0.06l-0.027-0.094l-0.003-0.14v-0.521h0.392V22.749z M49.727,23.15l-0.09-0.318 l-0.277-0.113l-0.205,0.042l-0.21,0.141l-0.122-0.136l-0.198-0.047l-0.188,0.042l-0.182,0.116V22.75h-0.188v1.139h0.188v-0.85 l0.159-0.099l0.157-0.039l0.129,0.023l0.064,0.065l0.027,0.109l0.008,0.141v0.65h0.19v-0.729L48.987,23.1l-0.003-0.056l0.163-0.103 l0.159-0.041l0.127,0.023l0.066,0.065l0.025,0.11l0.012,0.139v0.65h0.189V23.15z"/>
</symbol>
<symbol id="skrill" viewBox="0 0 56.48 56.48">
<path d="M34.857,35.15c0,0.453-0.184,0.756-0.516,0.756c-0.326,0-0.511-0.311-0.511-0.762c0-0.459,0.179-0.75,0.511-0.75
S34.857,34.698,34.857,35.15z M22.435,34.245c-0.24,0-0.412,0.212-0.441,0.642h0.883C22.847,34.462,22.699,34.245,22.435,34.245z
 M28.357,34.457c-0.184,0-0.334,0.108-0.477,0.27v1.111c0.115,0.034,0.184,0.051,0.314,0.051c0.338,0,0.58-0.205,0.58-0.762
C28.775,34.657,28.603,34.457,28.357,34.457z M31.324,34.394c-0.332,0-0.51,0.291-0.51,0.75c0,0.453,0.182,0.762,0.51,0.762
c0.332,0,0.516-0.305,0.516-0.756C31.84,34.698,31.656,34.394,31.324,34.394z M40.092,34.245c-0.24,0-0.412,0.212-0.44,0.642h0.883
C40.504,34.462,40.355,34.245,40.092,34.245z M16.386,34.394c-0.332,0-0.51,0.291-0.51,0.75c0,0.453,0.184,0.762,0.51,0.762
c0.334,0,0.516-0.305,0.516-0.756C16.902,34.698,16.72,34.394,16.386,34.394z M56.48,11.393v33.695c0,0.803-0.65,1.454-1.454,1.454
H1.454C0.65,46.542,0,45.89,0,45.087V11.393c0-0.803,0.65-1.454,1.454-1.454h53.572C55.83,9.939,56.48,10.59,56.48,11.393z
 M43.018,30.946h2.969V19.557l-2.969,0.531V30.946z M34.482,20.355c0,0.808,0.654,1.462,1.461,1.462
c0.809,0,1.463-0.655,1.463-1.462c0-0.808-0.654-1.463-1.463-1.463C35.137,18.891,34.482,19.547,34.482,20.355z M34.461,30.946
h2.967v-8.33h-2.967V30.946z M28.652,30.946h2.992v-3.822c0-1.464,0.191-2.093,1.93-2.152v-2.435
c-0.293-0.062-0.787-0.043-0.787-0.043c-2.742,0.088-4.135,1.319-4.135,3.766V30.946z M19.982,30.946h3.063v-3.333
c0.887,1.33,1.326,3.333,1.326,3.333h3.668c-0.363-1.508-1.951-4.29-1.951-4.29c1.426-1.806,2.051-3.73,2.15-4.05h-3.502
c-0.066,0.166-0.541,1.509-1.691,2.9v-5.949l-3.063,0.605V30.946z M14.601,34.554c0-0.545-0.275-0.871-0.797-0.871
c-0.35,0-0.625,0.188-0.877,0.44c-0.102-0.252-0.314-0.44-0.697-0.44c-0.361,0-0.619,0.183-0.871,0.44l-0.064-0.383h-0.762v2.808
h0.865v-1.852c0.154-0.148,0.299-0.246,0.459-0.246c0.201,0,0.275,0.137,0.275,0.337v1.759h0.865v-1.851
c0.154-0.149,0.303-0.246,0.457-0.246c0.201,0,0.275,0.138,0.275,0.337v1.76H14.6L14.601,34.554L14.601,34.554z M17.74,35.144
c0-0.899-0.574-1.461-1.354-1.461c-0.773,0-1.346,0.567-1.346,1.467c0,0.898,0.568,1.455,1.34,1.455
C17.16,36.605,17.74,36.043,17.74,35.144z M19.236,27.397c0-2.072-1.639-3.419-4.391-3.604c-0.375-0.024-1.242-0.081-1.242-0.863
c0-0.943,1.25-0.943,1.719-0.943c0.824,0,1.893,0.243,2.654,0.472c0,0,0.426,0.15,0.789,0.304l0.033,0.009v-0.034V20.19
l-0.047-0.014c-0.9-0.315-1.947-0.618-3.887-0.618c-3.346,0-4.531,1.949-4.531,3.618c0,0.962,0.412,3.228,4.244,3.489
c0.324,0.02,1.188,0.07,1.188,0.877c0,0.667-0.707,1.062-1.893,1.062c-1.301,0-2.564-0.332-3.33-0.646v2.661
c1.148,0.301,2.441,0.451,3.957,0.451C17.771,31.069,19.236,29.224,19.236,27.397z M20.695,34.554c0-0.545-0.275-0.871-0.797-0.871
c-0.355,0-0.625,0.195-0.877,0.44l-0.062-0.383h-0.762v2.808h0.865v-1.846c0.154-0.154,0.309-0.251,0.475-0.251
c0.207,0,0.287,0.138,0.287,0.337v1.76h0.871V34.554z M22,35.362h1.686c0.01-0.045,0.016-0.138,0.016-0.224
c0-0.813-0.383-1.455-1.242-1.455c-0.762,0-1.324,0.556-1.324,1.472c0,1.002,0.602,1.448,1.443,1.448
c0.441,0,0.814-0.12,1.117-0.314l-0.086-0.607c-0.309,0.178-0.613,0.293-0.922,0.293C22.308,35.974,22.047,35.802,22,35.362z
 M26.674,33.741h-0.838L25.32,35.47L24.777,33.7l-0.928,0.108l1.02,2.744l-0.035,0.086c-0.092,0.194-0.264,0.27-0.457,0.27
c-0.168,0-0.254-0.018-0.346-0.046l0.109,0.692c0.08,0.018,0.154,0.035,0.326,0.035c0.613,0,0.957-0.252,1.209-0.986L26.674,33.741
z M29.641,35.07c0-0.951-0.437-1.387-1.01-1.387c-0.332,0-0.572,0.184-0.75,0.367v-1.639l-0.865,0.137v3.834
c0.326,0.125,0.752,0.199,1.203,0.199C29.084,36.582,29.641,36.113,29.641,35.07z M32.676,35.144c0-0.899-0.574-1.461-1.352-1.461
c-0.773,0-1.348,0.567-1.348,1.467c0,0.898,0.568,1.455,1.342,1.455C32.098,36.605,32.676,36.043,32.676,35.144z M35.693,35.144
c0-0.899-0.572-1.461-1.352-1.461c-0.773,0-1.347,0.567-1.347,1.467c0,0.898,0.565,1.455,1.341,1.455
C35.115,36.605,35.693,36.043,35.693,35.144z M38.73,36.462l-0.918-1.445l0.883-1.276h-0.93l-0.75,1.151v-2.48l-0.863,0.137v4
h0.863v-1.307l0.813,1.346L38.73,36.462z M39.656,35.362h1.686c0.01-0.045,0.017-0.138,0.017-0.224
c0-0.813-0.384-1.455-1.242-1.455c-0.763,0-1.324,0.556-1.324,1.472c0,1.002,0.603,1.448,1.445,1.448
c0.438,0,0.813-0.12,1.114-0.314l-0.086-0.607c-0.309,0.178-0.61,0.293-0.922,0.293C39.967,35.974,39.703,35.802,39.656,35.362z
 M41.652,19.557l-2.967,0.531v10.858h2.967V19.557z M43.633,34.566l-0.145-0.883c-0.412,0.029-0.646,0.293-0.818,0.613
l-0.092-0.556H41.82v2.808h0.865V34.99C42.898,34.761,43.213,34.595,43.633,34.566z M46.146,35.683c0-0.521-0.264-0.711-1.01-0.911
c-0.396-0.109-0.476-0.171-0.476-0.286c0-0.109,0.093-0.184,0.297-0.184c0.271,0,0.619,0.097,0.925,0.263l0.106-0.658
c-0.291-0.131-0.658-0.207-1.037-0.207c-0.688,0-1.075,0.351-1.075,0.871c0,0.526,0.299,0.716,1.002,0.899
c0.396,0.098,0.477,0.16,0.477,0.303c0,0.132-0.115,0.212-0.355,0.212c-0.32,0-0.729-0.126-1.061-0.333l-0.104,0.658
c0.293,0.156,0.711,0.281,1.157,0.281C45.738,36.593,46.146,36.273,46.146,35.683z"/>
</symbol>
<symbol id="am_exp" viewBox="0 0 474.172 474.172">
<path d="M112.938,207.421h-0.309c-1.528,4.227-3.186,8.576-5.186,12.9l-10.079,20.655h30.986 l-10.079-20.541C116.003,215.761,114.467,211.534,112.938,207.421z"/>
<path d="M0,91.938v290.296h474.172V91.938H0z M142.087,270.612l-10.99-22.443H94.617l-10.673,22.443 H70.215l34.953-71.361h16.013l35.107,71.361H142.087z M248.686,270.612l-2.593-31.328c-0.78-9.974-1.707-21.923-1.553-30.807 h-0.439c-3.528,8.34-7.779,17.257-12.981,27.101L212.96,270.19h-10.079l-16.631-33.994c-4.869-10.055-8.99-19.281-11.892-27.727 h-0.317c-0.309,8.885-1.057,20.834-1.992,31.531l-2.723,30.604h-12.697l7.178-71.361h16.94l17.541,34.514 c4.3,8.787,7.795,16.639,10.388,24.02h0.471c2.585-7.178,6.243-15.03,10.827-24.02l18.322-34.514h16.94l6.405,71.361h-12.957 V270.612z M390.684,270.612l-13.128-15.778c-5.34-6.04-8.706-9.958-11.925-14.071h-0.284c-2.894,4.113-5.804,7.925-11.136,14.176 l-12.38,15.68h-13.298v-2.252l-1.967,2.252h-55.86V199.26h55.551v7.722h-42.285v22.565h39.976v7.625h-39.976v25.727h44.561v5.471 l29.49-33.839l-30.214-35.262h15.412l13.575,16.737c3.812,4.641,6.714,8.242,9.462,12.071h0.463 c2.878-4.243,5.495-7.535,9.307-12.071l14.046-16.737h15.265l-31.279,34.717l32.018,36.635h-15.395V270.612z"/>
</symbol>
<symbol id="apple" viewBox="0 0 410 260">
<path d="M10,0H400a10,10,0,0,1,10,10V250a10,10,0,0,1-10,10H10A10,10,0,0,1,0,250V10A10,10,0,0,1,10,0Z" fill="#fff"/>
<path d="M60.382,17.476c-3.869,4.579-10.06,8.19-16.251,7.674-.774-6.191,2.257-12.769,5.8-16.832C53.8,3.611,60.576.258,66.057,0c.645,6.449-1.87,12.769-5.675,17.476m5.611,8.9c-8.964-.516-16.638,5.095-20.894,5.095-4.321,0-10.834-4.837-17.928-4.708A26.489,26.489,0,0,0,4.664,40.435C-5.009,57.073,2.149,81.707,11.5,95.25c4.579,6.707,10.06,14.059,17.283,13.8,6.836-.258,9.544-4.45,17.8-4.45,8.319,0,10.705,4.45,17.928,4.321,7.481-.129,12.188-6.707,16.767-13.414A58.821,58.821,0,0,0,88.757,80.1c-.129-.129-14.445-5.611-14.574-22.12-.129-13.8,11.286-20.378,11.8-20.765-6.449-9.544-16.509-10.576-19.992-10.834m51.785-18.7V108.212h15.606V73.84h21.6c19.734,0,33.6-13.543,33.6-33.147S174.979,7.674,155.5,7.674H117.777ZM133.384,20.83h17.992c13.543,0,21.281,7.223,21.281,19.927s-7.739,19.992-21.346,19.992H133.384Zm83.707,88.156c9.8,0,18.9-4.966,23.023-12.833h.322v12.059h14.445V58.169c0-14.51-11.608-23.861-29.471-23.861-16.574,0-28.827,9.48-29.278,22.507H210.19c1.161-6.191,6.9-10.254,14.768-10.254,9.544,0,14.9,4.45,14.9,12.64v5.546l-19.476,1.161c-18.121,1.1-27.924,8.513-27.924,21.41C192.456,100.345,202.58,108.986,217.09,108.986Zm4.192-11.93c-8.319,0-13.607-4-13.607-10.125,0-6.32,5.095-10,14.832-10.576l17.347-1.1v5.675C239.855,90.349,231.858,97.056,221.282,97.056Zm52.881,38.5c15.219,0,22.378-5.8,28.633-23.409L330.2,35.275H314.339L295.96,94.67h-.322L277.258,35.275H260.943l26.44,73.195-1.419,4.45c-2.386,7.545-6.255,10.447-13.156,10.447-1.225,0-3.611-.129-4.579-.258v12.059A42.989,42.989,0,0,0,274.163,135.556Z" transform="translate(39.941 64)" fill="#222"/>
</symbol>
<symbol id="bitcoin" viewBox="0 0 2000 2000"><path d="M1139.2 1020.9H898.6V1320h242.5c108.4 0 224.6-38.7 224.6-135.8-.1-97.1-66.5-163.3-226.5-163.3zm146.3-253.5c0-93.7-88.2-134.9-173.6-134.9H898.6V908h208c86 .6 178.9-46.7 178.9-140.6z"/><path class="st0" d="M992.2 0C444.2 0 0 444.2 0 992.2s444.2 992.2 992.2 992.2 992.2-444.2 992.2-992.2S1540.1 0 992.2 0zm159.1 1482.6H722.1v-254.2H458.7v-129h263.4v-171H458.7v-129h263.4V497h463.6c165.4 0 270 138.1 270 246.4S1356.4 913 1356.4 913c106.1 40.9 174.8 144.2 171.6 257.8 0 201.1-173.8 311.8-376.7 311.8z"/></symbol>
<symbol id="cirrus" viewBox="0 0 45.35 45.35">
<path d="M44.066,30.075c-0.009-0.01-0.02-0.02-0.031-0.023c-0.014-0.005-0.039-0.009-0.076-0.009h-0.088v0.144h0.094 c0.044,0,0.074-0.007,0.09-0.021c0.015-0.013,0.023-0.03,0.023-0.052C44.078,30.097,44.074,30.087,44.066,30.075z"/>
<path d="M44.367,29.989c-0.039-0.07-0.094-0.125-0.164-0.162c-0.069-0.039-0.143-0.058-0.215-0.058 c-0.074,0-0.148,0.019-0.217,0.058c-0.07,0.037-0.125,0.091-0.164,0.162c-0.04,0.071-0.061,0.144-0.061,0.22 c0,0.075,0.022,0.15,0.059,0.219c0.039,0.069,0.094,0.124,0.164,0.163c0.07,0.038,0.143,0.059,0.219,0.059 c0.076,0,0.149-0.021,0.218-0.059c0.069-0.039,0.124-0.094,0.161-0.163c0.039-0.072,0.06-0.144,0.06-0.219 C44.427,30.133,44.406,30.057,44.367,29.989z M44.101,30.452l-0.043-0.074c-0.031-0.058-0.057-0.093-0.078-0.109 c-0.014-0.012-0.036-0.017-0.062-0.017h-0.045v0.2h-0.076v-0.473h0.162c0.056,0,0.096,0.004,0.118,0.014 c0.03,0.009,0.047,0.024,0.062,0.045c0.013,0.02,0.021,0.045,0.021,0.068c0,0.034-0.012,0.066-0.035,0.092 c-0.027,0.023-0.059,0.039-0.1,0.043c0.019,0.003,0.029,0.013,0.041,0.022c0.018,0.021,0.041,0.052,0.068,0.095l0.059,0.094 H44.101z"/>
<path d="M31.776,9.099c-3.502,0.001-6.698,1.329-9.104,3.51c-2.409-2.178-5.6-3.506-9.1-3.506c-0.029,0-0.058,0-0.087,0 C6.033,9.15,0,15.212,0,22.675c0,7.492,6.08,13.572,13.573,13.572c3.5,0,6.692-1.328,9.099-3.506 c-0.503-0.455-0.958-0.959-1.388-1.484h2.803c-0.425,0.517-0.886,1.004-1.378,1.453h-0.003c0,0.001,0.001,0.001,0.001,0.001 c-0.012,0.009-0.023,0.018-0.035,0.03c2.407,2.182,5.604,3.511,9.11,3.51c7.496-0.002,13.57-6.08,13.568-13.576 c0-0.002,0-0.005,0-0.007C45.348,15.172,39.27,9.097,31.776,9.099z M21.437,14.01h2.579c0.383,0.46,0.738,0.945,1.055,1.454H20.47 C20.764,14.977,21.09,14.479,21.437,14.01z M19.665,16.89h6.187c0.223,0.47,0.418,0.955,0.586,1.453h-7.504 C19.007,18.203,19.27,17.637,19.665,16.89z M11.122,26.195c-1.303,0.364-2.539,0.485-3.842,0.052 c-1.163-0.404-2.109-1.451-2.186-2.582c-0.264-1.815,0.604-3.672,2.372-4.524c1.643-0.74,3.519-0.612,5.255-0.166 c-0.129,0.568-0.196,0.889-0.372,1.579c-1.085-0.461-2.542-0.702-3.658-0.004c-1.055,0.671-1.411,1.718-1.334,2.877 c0.078,0.56,0.496,1.105,1.087,1.34c1.021,0.377,1.998,0.242,3.084-0.313C11.373,25.153,11.256,25.7,11.122,26.195z M14.553,26.5 h-2.21l1.314-6.172h2.21L14.553,26.5z M18.269,26.495h-2.301l0.106-0.414c0.404-1.911,0.921-3.84,1.212-5.75h2.022 c0.048,0.32-0.098,0.627-0.129,0.948c0.436-0.397,0.897-1.197,2.524-0.982L21,22.024l-0.365-0.072 c-0.595-0.087-1.137,0.361-1.408,0.826C18.709,23.94,18.542,25.241,18.269,26.495z M25.087,29.858h-4.815 c-0.292-0.47-0.567-0.949-0.802-1.453h6.407C25.643,28.907,25.379,29.392,25.087,29.858z M25.664,21.952 c-0.596-0.086-1.138,0.361-1.409,0.826c-0.519,1.162-0.685,2.465-0.958,3.719h-2.302l0.106-0.416 c0.404-1.91,0.921-3.838,1.213-5.748h2.022c0.049,0.32-0.1,0.626-0.129,0.947c0.434-0.397,0.896-1.197,2.523-0.982l-0.703,1.727 L25.664,21.952z M33.025,26.5h-2.084l0.176-1.005h-0.024c-0.65,0.686-1.321,1.146-2.508,1.146c-1.31,0-2.021-0.92-2.021-2.123 c0-0.412,0.035-0.651,0.174-1.298l0.6-2.865h2.203l-0.624,2.875c-0.061,0.307-0.149,0.616-0.149,0.932 c0,0.367,0.366,0.732,0.99,0.709c0.948,0,1.51-0.78,1.672-1.688l0.637-2.83h2.244L33.3,24.894 C33.188,25.424,33.088,25.942,33.025,26.5z M39.981,21.791c-0.572-0.059-1.177-0.095-1.619-0.095 c-0.728,0-1.103,0.175-1.103,0.513c0,0.293,0.111,0.364,1.054,0.681c1.129,0.382,1.588,0.888,1.588,1.747 c0,1.434-1.099,2.096-3.475,2.096c-0.292,0-0.707-0.019-1.243-0.054c-0.259-0.019-0.454-0.035-0.588-0.055l-0.413-0.064 l-0.1-0.014l0.309-1.448c0.723,0.174,1.348,0.249,2.02,0.249c0.893,0,1.293-0.174,1.293-0.565c0-0.285-0.141-0.379-1.053-0.692 c-1.192-0.41-1.715-0.956-1.715-1.749c-0.009-1.158,0.863-2.122,3.383-2.123c0.514,0,1.398,0.055,1.982,0.123L39.981,21.791z M41.262,26.943c-0.039,0.07-0.093,0.125-0.163,0.164c-0.071,0.037-0.142,0.058-0.218,0.058c-0.076,0-0.152-0.021-0.22-0.058 c-0.068-0.039-0.122-0.094-0.162-0.164c-0.038-0.071-0.059-0.143-0.059-0.218c0-0.075,0.021-0.152,0.061-0.22 c0.039-0.07,0.094-0.125,0.164-0.163c0.07-0.037,0.145-0.058,0.216-0.058c0.074,0,0.148,0.021,0.216,0.058 c0.07,0.038,0.125,0.092,0.164,0.163c0.04,0.071,0.061,0.145,0.061,0.22C41.322,26.8,41.302,26.873,41.262,26.943z"/>
<path d="M41.199,26.542c-0.031-0.059-0.078-0.104-0.137-0.137c-0.06-0.031-0.117-0.047-0.181-0.047 c-0.064,0-0.121,0.016-0.181,0.047c-0.059,0.033-0.106,0.076-0.137,0.137c-0.033,0.059-0.051,0.12-0.051,0.183 c0,0.065,0.018,0.124,0.049,0.183c0.032,0.06,0.077,0.105,0.135,0.137c0.061,0.031,0.119,0.049,0.185,0.049 c0.066,0,0.124-0.018,0.183-0.049c0.06-0.033,0.105-0.077,0.137-0.137c0.031-0.059,0.048-0.119,0.048-0.183 C41.249,26.661,41.232,26.601,41.199,26.542z M40.996,26.967l-0.041-0.073c-0.033-0.057-0.059-0.093-0.08-0.111 c-0.014-0.01-0.037-0.016-0.061-0.016h-0.045v0.201h-0.078v-0.001v-0.472h0.164c0.055,0,0.094,0.004,0.118,0.013 c0.027,0.011,0.046,0.025,0.062,0.046c0.013,0.021,0.021,0.045,0.021,0.068c0,0.035-0.012,0.067-0.036,0.091 c-0.026,0.024-0.058,0.04-0.099,0.043c0.017,0.004,0.03,0.013,0.04,0.024c0.019,0.02,0.042,0.051,0.07,0.095l0.058,0.092H40.996z"/>
<path d="M40.96,26.592c-0.01-0.009-0.017-0.018-0.032-0.024c-0.013-0.006-0.039-0.009-0.075-0.009h-0.088v0.144h0.094 c0.045,0,0.073-0.008,0.09-0.021c0.018-0.014,0.026-0.031,0.023-0.053C40.972,26.614,40.968,26.603,40.96,26.592z"/>
</symbol>
<symbol id="info" viewBox="0 0 48 48">
<path d="M23,37h2V18h-2V37z M24,0C10.745,0,0,10.745,0,24c0,13.255,10.745,24,24,24c13.255,0,24-10.745,24-24 C48,10.745,37.255,0,24,0z M24,46C11.869,46,2,36.131,2,24C2,11.869,11.869,2,24,2c12.131,0,22,9.869,22,22 C46,36.131,36.131,46,24,46z M24,10c-0.857,0-2,1.209-2,2c0,0.792,1.143,2,2,2c0.857,0,2-1.146,2-2C26,11.146,24.857,10,24,10z"/>
</symbol>
<symbol id="address" viewBox="0 0 355.612 355.612">
<path d="m182.806,132.806h124.806l48-60-48-60h-124.806-20v70h-114.806l-48,60 48,60h114.806v120h-77.5v20h175v-20h-77.5v-120-70zm0-100h115.194l32,40-32,40h-115.194v-30-50zm-125.194,150l-32-40 32-40h105.194v30 50h-105.194z"/>
</symbol>
<symbol id="file3" viewBox="0 0 464.686 464.686">
<path d="M301.473,176.512H163.214c-4.487,0-8.129,3.633-8.129,8.129s3.642,8.129,8.129,8.129h138.259 c4.487,0,8.129-3.633,8.129-8.129C309.601,180.145,305.96,176.512,301.473,176.512z"/>
<path d="M301.473,245.499H163.214c-4.487,0-8.129,3.633-8.129,8.129c0,4.495,3.642,8.129,8.129,8.129 h138.259c4.487,0,8.129-3.633,8.129-8.129C309.601,249.141,305.96,245.499,301.473,245.499z"/>
<path d="M301.473,314.495H163.214c-4.487,0-8.129,3.633-8.129,8.129c0,4.495,3.642,8.129,8.129,8.129 h138.259c4.487,0,8.129-3.633,8.129-8.129C309.601,318.128,305.96,314.495,301.473,314.495z"/>
<path d="M301.473,383.482H163.214c-4.487,0-8.129,3.633-8.129,8.129c0,4.495,3.642,8.129,8.129,8.129 h138.259c4.487,0,8.129-3.633,8.129-8.129C309.601,387.115,305.96,383.482,301.473,383.482z"/>
<path d="M119.653,58.826c4.487,0,8.129-3.633,8.129-8.129s-3.642-8.129-8.129-8.129H76.531 c-4.487,0-8.129,3.633-8.129,8.129v405.86c0,4.495,3.642,8.129,8.129,8.129h311.625c4.487,0,8.129-3.633,8.129-8.129V50.698 c0-4.495-3.642-8.129-8.129-8.129h-43.114c-4.487,0-8.129,3.633-8.129,8.129s3.642,8.129,8.129,8.129h34.985v389.603H84.659V58.826 H119.653z"/>
<path d="M277.948,0h-91.211c-4.487,0-8.129,3.633-8.129,8.129v16.2h-26.45c-4.487,0-8.129,3.633-8.129,8.129 v71.434c0,4.495,3.642,8.129,8.129,8.129h160.369c4.487,0,8.129-3.633,8.129-8.129V32.466c0-4.495-3.642-8.129-8.129-8.129h-26.45 V8.129C286.077,3.642,282.435,0,277.948,0z M304.399,40.594v55.177H160.287V40.594h26.45c4.487,0,8.129-3.633,8.129-8.129V16.257 h74.954v16.2c0,4.495,3.642,8.129,8.129,8.129h26.45V40.594z"/>
<circle cx="232.339" cy="48.95" r="15.2"/>
</symbol>
<symbol id="file2" viewBox="0 0 470 470">
<path d="M360.828,384.339c1.705-1.374,2.798-3.478,2.798-5.839c0-0.066,0-341,0-341c0-4.143-3.357-7.5-7.5-7.5H139.141 C133.79,12.647,117.605,0,98.52,0C79.742,0,63.311,12.514,57.906,30H33.874c-4.143,0-7.5,3.357-7.5,7.5v425 c0,4.143,3.357,7.5,7.5,7.5h238.187c2.425,0,4.527-1.092,5.902-2.794L360.828,384.339z M279.626,444.328V386h58.327 L279.626,444.328z M98.52,15c10.663,0,19.922,6.105,24.482,15H74.036C78.64,21.052,88.011,15,98.52,15z M41.374,45h84.646v52.5 c0,6.893-5.607,12.5-12.5,12.5s-12.5-5.607-12.5-12.5v-30c0-4.143-3.357-7.5-7.5-7.5s-7.5,3.357-7.5,7.5v30 c0,15.163,12.337,27.5,27.5,27.5s27.5-12.337,27.5-27.5V45h207.606v326h-76.5c-4.143,0-7.5,3.357-7.5,7.5V455H41.374V45z"/>
<path d="M296.126,345.5c4.143,0,7.5-3.357,7.5-7.5s-3.357-7.5-7.5-7.5H93.874c-4.143,0-7.5,3.357-7.5,7.5s3.357,7.5,7.5,7.5 H296.126z"/>
<path d="M93.874,300.5h202.252c4.143,0,7.5-3.357,7.5-7.5s-3.357-7.5-7.5-7.5H93.874c-4.143,0-7.5,3.357-7.5,7.5 S89.731,300.5,93.874,300.5z"/>
<path d="M93.874,255.5h202.252c4.143,0,7.5-3.357,7.5-7.5s-3.357-7.5-7.5-7.5H93.874c-4.143,0-7.5,3.357-7.5,7.5 S89.731,255.5,93.874,255.5z"/>
<path d="M93.874,210.5h202.252c4.143,0,7.5-3.357,7.5-7.5s-3.357-7.5-7.5-7.5H93.874c-4.143,0-7.5,3.357-7.5,7.5 S89.731,210.5,93.874,210.5z"/>
<path d="M93.874,165.5h202.252c4.143,0,7.5-3.357,7.5-7.5s-3.357-7.5-7.5-7.5H93.874c-4.143,0-7.5,3.357-7.5,7.5 S89.731,165.5,93.874,165.5z"/>
<path d="M396.126,30h-10c-4.143,0-7.5,3.357-7.5,7.5s3.357,7.5,7.5,7.5h2.5v410h-80.072c-4.143,0-7.5,3.357-7.5,7.5 s3.357,7.5,7.5,7.5h87.572c4.143,0,7.5-3.357,7.5-7.5v-425C403.626,33.357,400.269,30,396.126,30z"/>
<path d="M436.126,30h-10c-4.143,0-7.5,3.357-7.5,7.5s3.357,7.5,7.5,7.5h2.5v410h-2.5c-4.143,0-7.5,3.357-7.5,7.5s3.357,7.5,7.5,7.5 h10c4.143,0,7.5-3.357,7.5-7.5v-425C443.626,33.357,440.269,30,436.126,30z"/>
</symbol>
<symbol id="voucher" viewBox="0 0 475 475">
<g transform="translate(0 -540.36)">
<path d="M346.094,770.76h-217.2c-4.1,0-7.5,3.4-7.5,7.5s3.4,7.5,7.5,7.5h217.2c4.1,0,7.5-3.4,7.5-7.5 S350.194,770.76,346.094,770.76z"/>
<path d="M237.894,814.26c-15.6,0-28.4,12.8-28.4,28.4c0,15.6,12.7,28.4,28.4,28.4c15.2,0,27.7-12.8,27.7-28.4 C265.594,827.06,253.194,814.26,237.894,814.26z M237.894,855.96c-7.5,0-13.4-5.9-13.4-13.4s5.9-13.4,13.4-13.4 c6.9,0,12.7,6.2,12.7,13.4S244.794,855.96,237.894,855.96z"/>
<path d="M238.594,741.86c7.1,0,14-2.7,19.3-7.9c0-0.1,0.1-0.2,0.2-0.3c10.6-11.6,10.1-29.4-1-39.8c-10.4-11.1-28.1-11.6-39.8-1 c-0.1,0-0.2,0.1-0.3,0.2c-10.8,10.9-10.5,28.8,0.8,40.1C223.594,738.96,231.194,741.86,238.594,741.86z M227.594,703.76 L227.594,703.76c5.6-5,14-4.8,18.7,0.5c0.2,0.2,0.3,0.3,0.5,0.5c5.2,4.7,5.4,13.1,0.4,18.7c-5,4.9-13.3,4.5-18.7-0.9 c-2.7-2.7-4.2-6.2-4.3-9.9C224.094,709.26,225.294,706.06,227.594,703.76z"/>
<path d="M472.894,667.86c2.8-3,2.8-7.6-0.1-10.5l-114.8-114.8c-1.4-1.4-3.3-2.2-5.3-2.2s-3.9,0.8-5.3,2.2 c-6.1,6-14.4,9.4-23.4,9.4s-17.3-3.3-23.4-9.4c-1.4-1.4-3.3-2.2-5.3-2.2s-3.9,0.8-5.3,2.2l-287.8,287.8c-2.9,2.9-2.9,7.7,0,10.6 c12.7,12.7,12.7,34.1,0,46.8c-2.9,2.9-2.9,7.7,0,10.6l114.8,114.8c2.9,2.9,7.6,2.9,10.5,0.1c13.3-12.6,34.3-12.7,46.9-0.1 c1.5,1.5,3.4,2.2,5.3,2.2l0,0c1.9,0,3.8-0.7,5.3-2.2l287.8-287c2.9-2.9,2.9-7.5,0.1-10.5 C460.094,702.26,460.094,681.26,472.894,667.86z M457.394,720.26l-278.1,277.4c-16.6-11.9-39.5-11.8-56.5,0.1l-105.1-105.1 c11.9-16.7,11.9-39.9,0-56.7l278-278c8.1,5.9,17.9,9,28.3,9c10.4,0,20.2-3.2,28.3-9l105.1,105.1 C445.294,680.26,445.294,703.16,457.394,720.26z"/>
<path d="M374.394,630.26l-56.6,57.4c-2.9,2.9-2.8,7.7,0.1,10.6c1.5,1.5,3.4,2.2,5.3,2.2h0c2,0,3.9-0.8,5.3-2.3l56.6-57.4 c2.9-2.9,2.8-7.7-0.1-10.6C382.094,627.26,377.294,627.36,374.394,630.26z"/>
<path d="M147.394,858.26l-57.4,56.6c-3,2.9-3,7.7-0.1,10.6c1.4,1.5,3.4,2.2,5.3,2.2v0c1.9,0,3.8-0.7,5.3-2.1l57.4-56.6 c3-2.9,3-7.7,0.1-10.6C155.094,855.36,150.294,855.36,147.394,858.26z"/>
</g>
</symbol>
<symbol id="like-stroke" viewBox="0 0 16 14">
<path d="M7.706,13.901 C7.808,13.960 7.921,13.999 8.044,13.999 C8.156,13.999 8.279,13.970 8.382,13.901 C8.659,13.727 15.155,9.669 15.893,5.543 C16.272,3.407 15.575,2.086 14.930,1.358 C14.171,0.503 13.044,-0.001 11.927,-0.001 C11.558,-0.001 11.200,0.057 10.882,0.174 C9.325,0.727 8.269,1.708 7.695,2.377 C7.132,1.717 6.169,0.766 5.000,0.388 C4.642,0.271 4.252,0.213 3.843,0.213 C2.797,0.213 1.803,0.620 1.117,1.339 C0.512,1.970 -0.174,3.173 0.041,5.271 C0.471,9.397 7.408,13.717 7.706,13.901 ZM2.029,2.115 C2.654,1.465 3.433,1.368 3.843,1.368 C4.109,1.368 4.365,1.407 4.601,1.484 C6.025,1.941 7.162,3.659 7.183,3.669 C7.296,3.844 7.501,3.950 7.716,3.940 C7.931,3.940 8.126,3.824 8.238,3.649 C8.249,3.630 9.273,1.979 11.323,1.251 C11.497,1.193 11.712,1.155 11.927,1.155 C12.686,1.155 13.454,1.514 13.987,2.106 C14.684,2.882 14.919,4.009 14.673,5.349 C14.407,6.824 13.136,8.591 10.995,10.465 C9.786,11.523 8.597,12.339 8.044,12.707 C7.460,12.329 6.199,11.456 4.918,10.349 C2.685,8.407 1.424,6.610 1.271,5.154 C1.137,3.824 1.394,2.775 2.029,2.115 Z"/>
</symbol>
<symbol id="down" viewBox="0 0 306 306">
<polygon points="270.3,58.65 153,175.95 35.7,58.65 0,94.35 153,247.35 306,94.35"/>
</symbol>
<symbol id="up" viewBox="0 0 306 306">
<polygon points="35.7,247.35 153,130.05 270.3,247.35 306,211.65 153,58.65 0,211.65"/>
</symbol>
<symbol id="pencil" viewBox="0 0 528.899 528.899">
<path d="M328.883,89.125l107.59,107.589l-272.34,272.34L56.604,361.465L328.883,89.125z M518.113,63.177l-47.981-47.981 c-18.543-18.543-48.653-18.543-67.259,0l-45.961,45.961l107.59,107.59l53.611-53.611 C532.495,100.753,532.495,77.559,518.113,63.177z M0.3,512.69c-1.958,8.812,5.998,16.708,14.811,14.565l119.891-29.069 L27.473,390.597L0.3,512.69z"/>
</symbol>
<symbol id="add" viewBox="0 0 20 20">
<line x1="0" y1="10" x2="20" y2="10" stroke="currentColor" /><line x1="10" y1="0" x2="10" y2="20" stroke="currentColor" />
</symbol>
<symbol id="email" viewBox="0 0 485.411 485.411">
<path d="M0,81.824v321.763h485.411V81.824H0z M242.708,280.526L43.612,105.691h398.187L242.708,280.526z M163.397,242.649L23.867,365.178V120.119L163.397,242.649z M181.482,258.533l61.22,53.762l61.22-53.762L441.924,379.72H43.487 L181.482,258.533z M322.008,242.655l139.535-122.536v245.059L322.008,242.655z"/>
</symbol>
<symbol id="location" viewBox="0 0 49 49">
<path d="M24.652,11.02c-3.292,0-5.973,2.753-5.973,6.136s2.68,6.136,5.973,6.136 c3.293,0,5.973-2.753,5.973-6.136S27.945,11.02,24.652,11.02z M24.652,21.538c-2.352,0-4.266-1.966-4.266-4.383 s1.914-4.383,4.266-4.383c2.354,0,4.267,1.966,4.267,4.383S27.006,21.538,24.652,21.538z M36.072,5.424 C32.981,2.249,28.872,0.5,24.501,0.5c-4.371,0-8.479,1.749-11.57,4.924c-5.719,5.875-6.43,16.929-1.54,23.626L24.501,48.5 l13.09-19.423C42.502,22.353,41.791,11.299,36.072,5.424z M36.207,28.053L24.501,45.42L12.777,28.025 c-4.436-6.076-3.8-16.06,1.362-21.362c2.768-2.844,6.448-4.41,10.363-4.41s7.595,1.566,10.364,4.41 C40.027,11.966,40.663,21.949,36.207,28.053z"/>
</symbol>
<symbol id="headphones" viewBox="0 0 38 38">
<path d="M33.041,10.351h-2.174C30.45,4.849,25.836,0.5,20.226,0.5h-2.452c-5.61,0-10.225,4.349-10.642,9.851 H4.958C2.775,10.351,1,12.125,1,14.305v6.929c0,2.181,1.775,3.954,3.958,3.954h2.957c0.45,0,0.814-0.364,0.814-0.814V11.164 c0-4.982,4.058-9.037,9.044-9.037h2.452c4.986,0,9.044,4.055,9.044,9.037v13.173c0,3.853-2.436,7.249-6.011,8.518 c-0.515-1.163-1.681-1.979-3.033-1.979c-1.828,0-3.315,1.485-3.315,3.312c0,1.826,1.487,3.312,3.315,3.312 c1.729,0,3.152-1.33,3.301-3.021c4.103-1.329,6.996-5.005,7.337-9.292h2.178c2.184,0,3.959-1.774,3.959-3.954v-6.929 C37,12.125,35.224,10.351,33.041,10.351z M7.101,23.56H4.958c-1.284,0-2.329-1.044-2.329-2.326v-6.929 c0-1.282,1.045-2.326,2.329-2.326h2.143V23.56z M20.226,35.873c-0.93,0-1.687-0.756-1.687-1.685s0.757-1.685,1.687-1.685 s1.686,0.756,1.686,1.685S21.155,35.873,20.226,35.873z M35.371,21.233c0,1.282-1.045,2.326-2.33,2.326h-2.143V11.979h2.143 c1.285,0,2.33,1.044,2.33,2.326V21.233z"/>
</symbol>
<symbol id="language" viewBox="0 0 512 512">
<path d="M255,0C112.87,0,0,117.257,0,257c0,140.939,114.049,255,255,255c139.899,0,257-113.031,257-255 C512,116.695,396.441,0,255,0z M167.142,48.027C125.596,99.438,107.473,175.418,105.259,242H30.504 C36.175,154.729,90.938,80.761,167.142,48.027z M30.512,272h74.748c2.219,66.423,20.265,141.202,61.248,191.854 C90.675,431.289,36.215,358.205,30.512,272z M240,480.171c-24.922-6.06-48.428-27.117-67.386-60.819 c-22.275-39.6-35.35-91.461-37.339-147.352H240V480.171z M240,242H135.282C139.179,135.078,184.309,45.675,240,31.854V242z M481.492,242h-74.758c-2.735-79.954-27.18-150.22-63.5-194.149C420.327,80.497,475.76,154.575,481.492,242z M270,31.918 C325.539,45.954,372.756,133.689,376.717,242H270V31.918z M270,480.194V271.8h106.716C372.81,378.102,326.305,466.685,270,480.194 z M344.095,463.934c41.954-51.07,60.365-126.142,62.637-192.134h74.751C475.725,358.073,420.698,431.407,344.095,463.934z"/>
</symbol>
<symbol id="currency" viewBox="0 0 212.755 212.755">
<path d="M106.377,0C47.721,0,0,47.721,0,106.377s47.721,106.377,106.377,106.377s106.377-47.721,106.377-106.377   S165.034,0,106.377,0z M106.377,198.755C55.44,198.755,14,157.314,14,106.377S55.44,14,106.377,14s92.377,41.44,92.377,92.377   S157.314,198.755,106.377,198.755z"/><path d="m113.377,100.096v-39.744c3.961,1.471 7.417,4.17 9.82,7.82 2.127,3.229 6.468,4.123 9.696,1.997 3.229-2.126 4.123-6.467 1.996-9.696-5.029-7.636-12.778-12.82-21.512-14.647v-11.12c0-3.866-3.134-7-7-7s-7,3.134-7,7v11.099c-15.493,3.23-27.168,16.989-27.168,33.426 0,16.437 11.676,30.198 27.168,33.428v39.744c-3.961-1.471-7.417-4.17-9.82-7.82-2.127-3.229-6.468-4.124-9.696-1.997-3.229,2.126-4.123,6.467-1.996,9.696 5.029,7.636 12.778,12.82 21.512,14.647v11.119c0,3.866 3.134,7 7,7s7-3.134 7-7v-11.098c15.493-3.23 27.168-16.989 27.168-33.426-2.84217e-14-16.437-11.675-30.198-27.168-33.428zm-27.168-20.865c0-8.653 5.494-16.027 13.168-18.874v37.748c-7.674-2.847-13.168-10.221-13.168-18.874zm27.168,73.166v-37.748c7.674,2.847 13.168,10.221 13.168,18.874s-5.493,16.027-13.168,18.874z"/>
</symbol>
<symbol id="arrowright" viewBox="0 0 8 8">
<path d="M2.196,0.03c0.17,0,0.34,0.061,0.47,0.181l3.606,3.353C6.397,3.68,6.468,3.836,6.468,4  s-0.07,0.321-0.195,0.437L2.666,7.789c-0.259,0.241-0.68,0.241-0.938,0c-0.26-0.241-0.26-0.632,0-0.873L4.864,4L1.728,1.085 c-0.26-0.241-0.26-0.633,0-0.874C1.856,0.091,2.026,0.03,2.196,0.03z"/>
</symbol>
<symbol id="arrowleft" viewBox="0 0 8 8">
<path d="M5.804,7.97c-0.17,0-0.34-0.061-0.47-0.181L1.728,4.437C1.603,4.32,1.533,4.164,1.533,4 s0.07-0.321,0.195-0.437l3.606-3.353c0.259-0.241,0.68-0.241,0.938,0c0.26,0.241,0.26,0.632,0,0.873L3.136,4l3.136,2.915 c0.26,0.241,0.26,0.633,0,0.874C6.144,7.909,5.974,7.97,5.804,7.97z"/>
</symbol>
<symbol id="pk-star" viewBox="-1 -1 12 12"><path d="M9.943,3.875c0-0.155-0.111-0.252-0.334-0.289L6.627,3.125L5.291,0.259C5.215,0.087,5.119,0,5,0 C4.881,0,4.784,0.087,4.708,0.259L3.372,3.125L0.389,3.586C0.167,3.623,0.057,3.72,0.057,3.875c0,0.089,0.049,0.189,0.148,0.303 l2.162,2.23l-0.511,3.15C1.849,9.618,1.845,9.66,1.845,9.686c0,0.088,0.021,0.162,0.062,0.224C1.949,9.97,2.011,10,2.094,10 c0.071,0,0.15-0.023,0.238-0.075L5,8.438l2.668,1.487C7.75,9.977,7.83,10,7.904,10c0.08,0,0.141-0.029,0.182-0.091 s0.062-0.136,0.062-0.224c0-0.055-0.002-0.098-0.006-0.127l-0.512-3.15l2.156-2.23C9.891,4.069,9.943,3.968,9.943,3.875z"/></symbol>
<symbol id="loading" viewBox="0 0 91.3 91.3">
<circle cx="45.7" cy="45.7" r="45.7"/><circle fill="#FFFFFF" cx="45.7" cy="24.4" r="12.5"/>
</symbol>
<symbol id="bell" viewBox="0 0 512 512">
<path d="M467.819,431.851l-36.651-61.056c-16.896-28.181-25.835-60.437-25.835-93.312V224 c0-82.325-67.008-149.333-149.333-149.333S106.667,141.675,106.667,224v53.483c0,32.875-8.939,65.131-25.835,93.312 l-36.651,61.056c-1.984,3.285-2.027,7.403-0.149,10.731c1.899,3.349,5.461,5.419,9.301,5.419h405.333 c3.84,0,7.403-2.069,9.301-5.419C469.845,439.253,469.803,435.136,467.819,431.851z M72.171,426.667l26.944-44.907 C118.016,350.272,128,314.219,128,277.483V224c0-70.592,57.408-128,128-128s128,57.408,128,128v53.483 c0,36.736,9.984,72.789,28.864,104.277l26.965,44.907H72.171z"/>
<path d="M256,0c-23.531,0-42.667,19.136-42.667,42.667v42.667C213.333,91.221,218.112,96,224,96s10.667-4.779,10.667-10.667 V42.667c0-11.776,9.557-21.333,21.333-21.333s21.333,9.557,21.333,21.333v42.667C277.333,91.221,282.112,96,288,96 s10.667-4.779,10.667-10.667V42.667C298.667,19.136,279.531,0,256,0z"/>
<path d="M302.165,431.936c-3.008-5.077-9.515-6.741-14.613-3.819c-5.099,2.987-6.805,9.536-3.819,14.613
c2.773,4.715,4.288,10.368,4.288,15.936c0,17.643-14.357,32-32,32c-17.643,0-32-14.357-32-32c0-5.568,1.515-11.221,4.288-15.936 c2.965-5.099,1.259-11.627-3.819-14.613c-5.141-2.923-11.627-1.259-14.613,3.819c-4.715,8.064-7.211,17.301-7.211,26.731 C202.667,488.085,226.581,512,256,512s53.333-23.915,53.376-53.333C309.376,449.237,306.88,440,302.165,431.936z"/>
</symbol>
<symbol id="exclamation" viewBox="0 0 361.117 361.117">
<path d="M359.568,327.246L191.511,21.818c-2.197-3.993-6.395-6.474-10.952-6.474c-4.558,0-8.754,2.481-10.952,6.474L1.549,327.246 c-2.131,3.872-2.058,8.582,0.191,12.388c2.249,3.805,6.34,6.139,10.76,6.139h336.117c4.421,0,8.512-2.334,10.761-6.139 C361.627,335.828,361.699,331.118,359.568,327.246z M33.646,320.772L180.559,53.773l146.913,266.999H33.646z"/>
<path d="M164.894,143.085v90.351c0,8.65,7.014,15.665,15.665,15.665c8.65,0,15.665-7.015,15.665-15.665v-90.351 c0-8.651-7.015-15.665-15.665-15.665C171.908,127.42,164.894,134.435,164.894,143.085z"/>
<path d="M180.559,265.364c-9.097,0-16.5,7.399-16.5,16.5c0,9.098,7.403,16.5,16.5,16.5c9.097,0,16.5-7.402,16.5-16.5 C197.059,272.764,189.655,265.364,180.559,265.364z"/>
</symbol>
<symbol id="done" viewBox="0 0 15 11">
<path d="M13.842,0.154 C13.632,-0.052 13.291,-0.052 13.080,0.154 L4.352,8.723 L0.919,5.353 C0.709,5.146 0.368,5.146 0.157,5.353 C-0.053,5.559 -0.053,5.894 0.157,6.100 L3.971,9.845 C4.181,10.051 4.522,10.051 4.733,9.845 L13.842,0.902 C14.052,0.695 14.052,0.361 13.842,0.154 Z"/>
</symbol>
<symbol id="whatsapp" viewBox="0 0 58 58">
<path style="fill:#2CB742;" d="M0,58l4.988-14.963C2.457,38.78,1,33.812,1,28.5C1,12.76,13.76,0,29.5,0S58,12.76,58,28.5 S45.24,57,29.5,57c-4.789,0-9.299-1.187-13.26-3.273L0,58z"/>
<path style="fill:#FFFFFF;" d="M47.683,37.985c-1.316-2.487-6.169-5.331-6.169-5.331c-1.098-0.626-2.423-0.696-3.049,0.42 c0,0-1.577,1.891-1.978,2.163c-1.832,1.241-3.529,1.193-5.242-0.52l-3.981-3.981l-3.981-3.981c-1.713-1.713-1.761-3.41-0.52-5.242 c0.272-0.401,2.163-1.978,2.163-1.978c1.116-0.627,1.046-1.951,0.42-3.049c0,0-2.844-4.853-5.331-6.169 c-1.058-0.56-2.357-0.364-3.203,0.482l-1.758,1.758c-5.577,5.577-2.831,11.873,2.746,17.45l5.097,5.097l5.097,5.097 c5.577,5.577,11.873,8.323,17.45,2.746l1.758-1.758C48.048,40.341,48.243,39.042,47.683,37.985z"/>
</symbol>
<symbol id="telegram" viewBox="0 0 24 24">
<path d="m9.417 15.181-.397 5.584c.568 0 .814-.244 1.109-.537l2.663-2.545 5.518 4.041c1.012.564 1.725.267 1.998-.931l3.622-16.972.001-.001c.321-1.496-.541-2.081-1.527-1.714l-21.29 8.151c-1.453.564-1.431 1.374-.247 1.741l5.443 1.693 12.643-7.911c.595-.394 1.136-.176.691.218z" fill="#039be5"/>
</symbol>
</defs>
</svg>