<?xml version="1.0" encoding="iso-8859-1"?>
<svg xmlns="http://www.w3.org/2000/svg" width="26.414" height="19.5" viewBox="0 0 26.414 19.5">
<path d="M150.174,122.715a5.8,5.8,0,0,1-1.7,4.146.838.838,0,0,1-.653.261,1.036,1.036,0,0,1-.653-.261.887.887,0,0,1,0-1.273,4.11,4.11,0,0,0-2.938-6.987H134.143l2.318,2.318a.887.887,0,0,1,0,1.273.971.971,0,0,1-.653.261,1.036,1.036,0,0,1-.653-.261l-3.853-3.82c-.033-.033-.065-.1-.1-.13a.1.1,0,0,1-.033-.065.115.115,0,0,0-.033-.065c0-.033-.033-.065-.033-.1s0-.033-.033-.065a.673.673,0,0,1,0-.359v-.033c0-.033.033-.1.033-.131s.033-.033.033-.065c.033-.033.033-.065.065-.1,0-.033.033-.033.065-.065l3.951-3.951a.9.9,0,0,1,1.273,1.273l-2.318,2.318h10.089a5.86,5.86,0,0,1,5.909,5.877Zm-7.411,5.387c0-.033.033-.033.033-.065a.2.2,0,0,0,.033-.131v-.033a.673.673,0,0,0,0-.359c0-.033,0-.033-.033-.065,0-.033-.033-.065-.033-.1s-.033-.065-.065-.1c0-.033-.033-.033-.033-.065a.254.254,0,0,0-.131-.13l-3.82-3.853a.9.9,0,0,0-1.273,1.273l2.318,2.318H129.67a4.11,4.11,0,0,1-2.938-6.987.9.9,0,1,0-1.273-1.273,5.8,5.8,0,0,0-1.7,4.147,5.943,5.943,0,0,0,5.942,5.942h10.089l-2.318,2.318a.887.887,0,0,0,0,1.273.971.971,0,0,0,.653.261,1.036,1.036,0,0,0,.653-.261l3.885-3.885c.033-.033.033-.065.065-.065,0-.033.033-.033.033-.065-.033,0,0-.033,0-.1Z" transform="translate(-123.761 -112.978)" fill="#fff"/></svg>