<?xml version="1.0" encoding="iso-8859-1"?>
<svg xmlns="http://www.w3.org/2000/svg" width="25.085" height="21.866" viewBox="0 0 25.085 21.866">
<path d="M268.942,195.237a1,1,0,0,0-.788-.387h-2.905l-3.857-6.7a.995.995,0,1,0-1.724.993l3.285,5.705H250.26l3.285-5.705a.995.995,0,1,0-1.724-.993l-3.857,6.7h-2.905a.994.994,0,0,0-.962,1.246l3.315,12.681a1,1,0,0,0,.962.743H264.84a1,1,0,0,0,.962-.743l3.315-12.681a.993.993,0,0,0-.174-.86Zm-4.87,12.295h-14.93l-2.8-10.692h20.52Z" transform="translate(-244.065 -187.654)" fill="#333"/>
</svg>