<svg xmlns="http://www.w3.org/2000/svg" xmlns:xlink="http://www.w3.org/1999/xlink" width="1080" zoomAndPan="magnify" viewBox="0 0 810 809.999993" height="1080" preserveAspectRatio="xMidYMid meet" version="1.0"><defs><clipPath id="060db93709"><path d="M 97.164062 119.554688 L 710 119.554688 L 710 508 L 97.164062 508 Z M 97.164062 119.554688 " clip-rule="nonzero"/></clipPath></defs><g clip-path="url(#060db93709)"><path fill="#633d21" d="M 690.992188 186.46875 C 686.824219 186.339844 682.636719 186.441406 678.46875 186.441406 C 535.992188 186.441406 393.503906 186.441406 251.03125 186.441406 C 245.582031 186.441406 240.132812 186.441406 234.351562 186.441406 C 229.527344 168.207031 224.890625 151.234375 220.574219 134.175781 C 218.570312 126.253906 214.761719 119.933594 205.972656 119.863281 C 174.410156 119.554688 142.847656 119.554688 111.304688 119.847656 C 102.699219 119.933594 97.339844 125.152344 97.222656 133.925781 C 97.105469 142.632812 102.089844 147.671875 110.808594 148.488281 C 114.949219 148.878906 119.148438 148.71875 123.335938 148.71875 C 146.496094 148.734375 169.644531 148.734375 193.605469 148.734375 C 195.101562 153.5 196.191406 156.550781 197.003906 159.691406 C 224.960938 268.265625 252.90625 376.835938 280.789062 485.425781 C 286.109375 506.160156 287.402344 507.339844 309.269531 507.339844 C 406.261719 507.351562 503.269531 507.367188 600.261719 507.351562 C 617.191406 507.351562 624.035156 503.269531 624.414062 493.097656 C 624.804688 482.417969 617.582031 477.828125 599.914062 477.8125 C 517.308594 477.78125 434.699219 477.796875 352.078125 477.796875 C 340.933594 477.796875 329.773438 478.277344 318.6875 477.492188 C 314.90625 477.230469 309.007812 474.542969 308.09375 471.679688 C 303.894531 458.542969 301.117188 444.957031 297.253906 429.191406 C 309.835938 429.191406 320.851562 429.191406 331.878906 429.191406 C 426.054688 429.191406 520.214844 429.207031 614.386719 429.175781 C 632.347656 429.175781 634.351562 427.679688 640.195312 410.390625 C 648.214844 386.675781 656.164062 362.933594 664.15625 339.203125 C 678.65625 296.132812 693.289062 253.109375 707.644531 209.996094 C 712.730469 194.621094 707.121094 186.992188 690.992188 186.46875 Z M 654.171875 276.96875 C 641.601562 314.28125 628.773438 351.523438 616.566406 388.957031 C 613.964844 396.917969 610.113281 399.796875 601.714844 399.695312 C 545.191406 399.011719 488.652344 398.621094 432.128906 398.503906 C 405.40625 398.445312 378.683594 399.300781 351.960938 399.535156 C 333.480469 399.695312 314.964844 399.8125 296.496094 399.1875 C 293.417969 399.085938 288.519531 395.539062 287.78125 392.707031 C 272.347656 334.566406 257.410156 276.285156 242.023438 216.722656 C 386.210938 216.722656 529.148438 216.722656 674.3125 216.722656 C 667.324219 237.632812 660.785156 257.320312 654.171875 276.96875 Z M 654.171875 276.96875 " fill-opacity="1" fill-rule="nonzero"/></g><path fill="#633d21" d="M 552.660156 538.492188 C 510.898438 538.566406 476.621094 573.378906 477.246094 615.082031 C 477.855469 656.613281 511.757812 689.613281 553.371094 689.207031 C 595.105469 688.796875 628.234375 655.230469 627.914062 613.675781 C 627.59375 572.1875 593.796875 538.417969 552.660156 538.492188 Z M 552.035156 660.027344 C 526.824219 659.664062 506.496094 638.683594 506.859375 613.414062 C 507.222656 587.910156 527.710938 568.046875 553.328125 568.339844 C 578.800781 568.644531 598.867188 589.234375 598.535156 614.707031 C 598.199219 639.902344 577.160156 660.390625 552.035156 660.027344 Z M 552.035156 660.027344 " fill-opacity="1" fill-rule="nonzero"/><path fill="#633d21" d="M 337.359375 538.535156 C 296.597656 537.214844 261.59375 570.691406 260.503906 612.046875 C 259.402344 653.75 291.820312 688.085938 333.347656 689.175781 C 375.71875 690.296875 410.257812 657.5 411.085938 615.359375 C 411.886719 574.207031 378.929688 539.871094 337.359375 538.535156 Z M 334.945312 660.011719 C 309.734375 659.546875 289.40625 638.535156 289.785156 613.339844 C 290.175781 588.011719 310.8125 568.121094 336.441406 568.367188 C 361.828125 568.613281 381.835938 589.234375 381.515625 614.835938 C 381.226562 640.003906 360.113281 660.476562 334.945312 660.011719 Z M 334.945312 660.011719 " fill-opacity="1" fill-rule="nonzero"/></svg>