<?xml version="1.0" encoding="utf-8"?>
<!-- Generator: Adobe Illustrator 26.3.1, SVG Export Plug-In . SVG Version: 6.00 Build 0)  -->
<svg version="1.1" id="Calque_1" xmlns="http://www.w3.org/2000/svg" xmlns:xlink="http://www.w3.org/1999/xlink" x="0px" y="0px"
	 viewBox="0 0 1080 1080" style="enable-background:new 0 0 1080 1080;" xml:space="preserve">
<style type="text/css">
	.st0{fill:#FFFFFF;}
</style>
<g>
	<g>
		<path class="st0" d="M921.3,248.6c-5.6-0.2-11.1,0-16.7,0c-190,0-380,0-569.9,0c-7.3,0-14.5,0-22.2,0
			c-6.4-24.3-12.6-46.9-18.4-69.7c-2.7-10.6-7.8-19-19.5-19.1c-42.1-0.4-84.2-0.4-126.2,0c-11.5,0.1-18.6,7.1-18.8,18.8
			c-0.2,11.6,6.5,18.3,18.1,19.4c5.5,0.5,11.1,0.3,16.7,0.3c30.9,0,61.7,0,93.7,0c2,6.4,3.4,10.4,4.5,14.6
			c37.3,144.8,74.5,289.5,111.7,434.3c7.1,27.6,8.8,29.2,38,29.2c129.3,0,258.7,0,388,0c22.6,0,31.7-5.4,32.2-19
			c0.5-14.2-9.1-20.4-32.7-20.4c-110.1,0-220.3,0-330.4,0c-14.9,0-29.7,0.6-44.5-0.4c-5-0.3-12.9-3.9-14.1-7.8
			c-5.6-17.5-9.3-35.6-14.5-56.7c16.8,0,31.5,0,46.2,0c125.6,0,251.1,0,376.7,0c23.9,0,26.6-2,34.4-25
			c10.7-31.6,21.3-63.3,31.9-94.9c19.3-57.4,38.8-114.8,58-172.3C950.3,259.5,942.8,249.3,921.3,248.6z M872.2,369.3
			c-16.8,49.8-33.9,99.4-50.1,149.3c-3.5,10.6-8.6,14.5-19.8,14.3c-75.4-0.9-150.8-1.4-226.1-1.6c-35.6-0.1-71.3,1.1-106.9,1.4
			c-24.6,0.2-49.3,0.4-74-0.5c-4.1-0.1-10.6-4.9-11.6-8.6c-20.6-77.5-40.5-155.2-61-234.6c192.2,0,382.8,0,576.4,0
			C889.8,316.8,881,343.1,872.2,369.3z"/>
	</g>
</g>
<path class="st0" d="M736.9,718c-55.7,0.1-101.4,46.5-100.6,102.1c0.8,55.4,46,99.4,101.5,98.8c55.6-0.5,99.8-45.3,99.4-100.7
	C836.8,762.9,791.7,717.9,736.9,718z M736,880c-33.6-0.5-60.7-28.5-60.2-62.2c0.5-34,27.8-60.5,62-60.1c34,0.4,60.7,27.9,60.3,61.8
	C797.6,853.2,769.5,880.5,736,880z"/>
<path class="st0" d="M449.8,718c-54.3-1.8-101,42.9-102.5,98c-1.5,55.6,41.8,101.4,97.1,102.8c56.5,1.5,102.5-42.2,103.7-98.4
	C549.2,765.6,505.2,719.8,449.8,718z M446.6,880c-33.6-0.6-60.7-28.6-60.2-62.2c0.5-33.8,28-60.3,62.2-60
	c33.8,0.3,60.5,27.8,60.1,62C508.3,853.3,480.2,880.6,446.6,880z"/>
</svg>
