<?xml version="1.0" encoding="utf-8"?>
<!-- Generator: Adobe Illustrator 26.3.1, SVG Export Plug-In . SVG Version: 6.00 Build 0)  -->
<svg version="1.1" id="Calque_1" xmlns="http://www.w3.org/2000/svg" xmlns:xlink="http://www.w3.org/1999/xlink" x="0px" y="0px"
	 viewBox="0 0 42.5 42.5" style="enable-background:new 0 0 42.5 42.5;" xml:space="preserve">
<style type="text/css">
	.st0{fill:#FFFFFF;}
	.st1{fill:#AE9685;}
	.st2{fill:#AD9685;}
</style>
<g id="O">
	<path class="st0" d="M21.6,36.3c-8.5,0-15.5-6.9-15.5-15.5S13.1,5.4,21.6,5.4s15.5,6.9,15.5,15.5S30.2,36.3,21.6,36.3z"/>
	<path class="st1" d="M21.6,6.4c8,0,14.5,6.5,14.5,14.5s-6.5,14.5-14.5,14.5S7.1,28.9,7.1,20.9S13.6,6.4,21.6,6.4 M21.6,4.4
		c-9.1,0-16.5,7.4-16.5,16.5s7.4,16.5,16.5,16.5s16.5-7.4,16.5-16.5S30.7,4.4,21.6,4.4L21.6,4.4z"/>
</g>
<g id="icon" transform="translate(3.399 5.561)">
	<g id="Groupe_8" transform="translate(0 0)">
		<path id="Tracé_36" class="st2" d="M18.3,24.5c-3.9-0.1-7.4-2-9.7-5.2l0,0c-2-2.2-2-5.6,0-7.8c2.2-3.2,5.8-5.1,9.7-5.2
			c3.9,0.1,7.4,2,9.7,5.2c2,2.2,2,5.6,0,7.8C25.7,22.5,22.1,24.4,18.3,24.5z M9.9,18.4c0.9,1.2,2.1,2.3,3.4,3.1c3.1,2,7.1,2,10.2,0
			c1.3-0.8,2.4-1.9,3.4-3.1c1.5-1.7,1.5-4.2,0-5.9c-0.9-1.2-2.1-2.3-3.4-3.1c-3.1-2-7.1-2-10.2,0c-1.3,0.8-2.4,1.9-3.4,3.1
			C8.3,14.2,8.3,16.7,9.9,18.4z"/>
	</g>
	<g id="Groupe_9" transform="translate(7.259 5.185)">
		<path id="Tracé_37" class="st2" d="M11,14.1c-2.1,0-3.9-1.7-3.9-3.9c0-2.1,1.7-3.9,3.9-3.9c2.1,0,3.9,1.7,3.9,3.9
			C14.9,12.4,13.2,14.1,11,14.1z M11,7.9c-1.3,0-2.3,1-2.3,2.3c0,1.3,1,2.3,2.3,2.3c1.3,0,2.3-1,2.3-2.3C13.4,9,12.3,7.9,11,7.9z"/>
	</g>
</g>
</svg>
