<svg xmlns="http://www.w3.org/2000/svg" xmlns:xlink="http://www.w3.org/1999/xlink" width="1080" zoomAndPan="magnify" viewBox="0 0 810 809.999993" height="1080" preserveAspectRatio="xMidYMid meet" version="1.0"><defs><clipPath id="59eca5773a"><path d="M 99.6875 134.417969 L 710.1875 134.417969 L 710.1875 675.917969 L 99.6875 675.917969 Z M 99.6875 134.417969 " clip-rule="nonzero"/></clipPath></defs><g clip-path="url(#59eca5773a)"><path fill="#633d21" d="M 404.996094 675.441406 L 398.523438 671.042969 C 397.792969 670.554688 323.417969 619.75 250.144531 549.53125 C 206.914062 508.007812 172.351562 467.953125 147.4375 430.339844 C 115.808594 382.222656 99.6875 337.648438 99.6875 298.078125 C 99.6875 207.953125 173.085938 134.554688 263.210938 134.554688 C 296.671875 134.554688 329.035156 144.8125 356.636719 164.351562 C 376.664062 178.519531 393.027344 196.59375 404.996094 217.355469 C 416.964844 196.472656 433.328125 178.398438 453.359375 164.351562 C 480.957031 144.8125 513.320312 134.554688 546.78125 134.554688 C 636.910156 134.554688 710.304688 207.953125 710.304688 298.078125 L 710.304688 298.199219 C 709.9375 337.523438 693.695312 381.734375 661.945312 429.726562 C 637.03125 467.339844 602.59375 507.398438 559.359375 549.042969 C 486.210938 619.507812 412.203125 670.554688 411.46875 671.042969 Z M 263.210938 157.390625 C 185.664062 157.390625 122.527344 220.53125 122.527344 298.078125 C 122.527344 333.128906 137.300781 373.304688 166.488281 417.515625 C 190.304688 453.664062 223.765625 492.5 265.777344 532.800781 C 325.25 589.832031 385.578125 633.917969 404.996094 647.597656 C 424.414062 633.796875 484.378906 589.464844 543.730469 532.3125 C 585.617188 491.886719 618.957031 453.175781 642.894531 417.027344 C 672.082031 372.816406 687.101562 332.882812 687.347656 298.078125 C 687.347656 220.53125 624.207031 157.515625 546.660156 157.515625 C 489.140625 157.515625 436.503906 193.90625 415.5 248.128906 L 404.875 275.730469 L 394.371094 248.128906 C 373.367188 193.90625 320.730469 157.390625 263.210938 157.390625 Z M 263.210938 157.390625 " fill-opacity="1" fill-rule="nonzero"/></g></svg>