<?xml version="1.0" encoding="utf-8"?>
<!-- Generator: Adobe Illustrator 26.3.1, SVG Export Plug-In . SVG Version: 6.00 Build 0)  -->
<svg version="1.1" id="Calque_1" xmlns="http://www.w3.org/2000/svg" xmlns:xlink="http://www.w3.org/1999/xlink" x="0px" y="0px"
	 viewBox="0 0 595.3 264" style="enable-background:new 0 0 595.3 264;" xml:space="preserve">
<style type="text/css">
	.st0{fill:url(#SVGID_00000098933233547681209110000016994799610671229602_);}
	.st1{fill:url(#SVGID_00000072981084077948577740000011827583190673919663_);}
	.st2{fill:url(#SVGID_00000112610812363090386420000000937902455467532162_);}
	.st3{fill:#5F3913;}
	.st4{fill:url(#SVGID_00000030466920869961099130000005263130849980858534_);}
</style>
<g>
	<g>
		<g>
			<defs>
				<path id="SVGID_1_" d="M457.6,252H431c-3.3,0-6.3-1.6-8.1-4.4l-51.9-78.8v73.4c0,5.4-4.3,9.7-9.7,9.7h-22.1
					c-5.4,0-9.7-4.3-9.7-9.7V112.9c0-5.4,4.3-9.7,9.7-9.7h26.5c3.3,0,6.3,1.7,8.1,4.4l51.9,79.8v-74.5c0-5.4,4.3-9.7,9.7-9.7h22.1
					c5.4,0,9.7,4.3,9.7,9.7v129.4C467.3,247.7,462.9,252,457.6,252z M529,136v24.6h38.5c5.4,0,9.7,4.3,9.7,9.7v12
					c0,5.4-4.3,9.7-9.7,9.7H529V219h44.8c5.4,0,9.7,4.3,9.7,9.7v13.6c0,5.4-4.3,9.7-9.7,9.7h-76.6c-5.4,0-9.7-4.3-9.7-9.7V112.7
					c0-5.4,4.3-9.7,9.7-9.7h76.6c5.4,0,9.7,4.3,9.7,9.7v13.6c0,5.4-4.3,9.7-9.7,9.7H529z M139.8,215.7
					c-6.3,11.3-15.3,20.2-26.9,26.6c-11.6,6.5-25.3,9.7-41,9.7H22.2c-5.4,0-9.7-4.3-9.7-9.7V112.7c0-5.4,4.3-9.7,9.7-9.7h49.6
					c15.7,0,29.4,3.1,41.1,9.4c11.7,6.2,20.7,15,26.9,26.2c6.2,11.2,9.4,24.1,9.4,38.5C149.2,191.5,146.1,204.4,139.8,215.7z
					 M309.3,126.2V229c0,12.7-10.3,23-23,23h-93.8c-12.7,0-23-10.3-23-23V126.2c0-3.7,0.9-7.2,2.5-10.3c-3.5-6.1-2.8-13.3,1.9-16.8
					c5-3.7,12.7-1.8,17.4,4.2c0.4,0,0.8,0,1.1,0h93.8c0.4,0,0.8,0,1.1,0c4.8-6,12.4-7.8,17.4-4.2c4.7,3.4,5.4,10.6,1.9,16.7
					C308.4,118.9,309.3,122.4,309.3,126.2z"/>
			</defs>
			
				<linearGradient id="SVGID_00000138542398428517840630000010505324147639384239_" gradientUnits="userSpaceOnUse" x1="12.4474" y1="174.5895" x2="583.5526" y2="174.5895">
				<stop  offset="0" style="stop-color:#F3914B"/>
				<stop  offset="6.019014e-02" style="stop-color:#DF8647"/>
				<stop  offset="0.3137" style="stop-color:#995D37"/>
				<stop  offset="0.5435" style="stop-color:#694129"/>
				<stop  offset="0.7417" style="stop-color:#492D1D"/>
				<stop  offset="0.9004" style="stop-color:#372114"/>
				<stop  offset="1" style="stop-color:#301D10"/>
			</linearGradient>
			<use xlink:href="#SVGID_1_"  style="overflow:visible;fill:url(#SVGID_00000138542398428517840630000010505324147639384239_);"/>
			<clipPath id="SVGID_00000042731284855484469240000000347290622215880320_">
				<use xlink:href="#SVGID_1_"  style="overflow:visible;"/>
			</clipPath>
		</g>
		<g>
			<g>
				
					<linearGradient id="SVGID_00000062171425202900791440000010896603664432036272_" gradientUnits="userSpaceOnUse" x1="232.7034" y1="248.7416" x2="232.7034" y2="212.8445">
					<stop  offset="0" style="stop-color:#EEEBEC"/>
					<stop  offset="8.690619e-02" style="stop-color:#D4CFCF"/>
					<stop  offset="0.4124" style="stop-color:#847C7A"/>
					<stop  offset="0.6838" style="stop-color:#544B49"/>
					<stop  offset="0.8874" style="stop-color:#3A3230"/>
					<stop  offset="1" style="stop-color:#312A28"/>
				</linearGradient>
				<path style="fill:url(#SVGID_00000062171425202900791440000010896603664432036272_);" d="M235.8,248.7h-6.2
					c-2,0-3.6-1.6-3.6-3.6v-28.7c0-2,1.6-3.6,3.6-3.6h6.2c2,0,3.6,1.6,3.6,3.6v28.7C239.4,247.1,237.8,248.7,235.8,248.7z"/>
				
					<linearGradient id="SVGID_00000127759657363565472580000018414104610817227443_" gradientUnits="userSpaceOnUse" x1="246.1686" y1="248.7416" x2="246.1686" y2="212.8445">
					<stop  offset="0" style="stop-color:#EEEBEC"/>
					<stop  offset="1" style="stop-color:#312A28"/>
				</linearGradient>
				<path style="fill:url(#SVGID_00000127759657363565472580000018414104610817227443_);" d="M249.3,248.7H243c-2,0-3.6-1.6-3.6-3.6
					v-28.7c0-2,1.6-3.6,3.6-3.6h6.2c2,0,3.6,1.6,3.6,3.6v28.7C252.9,247.1,251.3,248.7,249.3,248.7z"/>
			</g>
			<g>
				
					<linearGradient id="SVGID_00000024702145784489147080000003945926686409363376_" gradientUnits="userSpaceOnUse" x1="187.1553" y1="201.755" x2="291.7166" y2="201.755">
					<stop  offset="0" style="stop-color:#DBCBB5"/>
					<stop  offset="0.2607" style="stop-color:#DDCDB8"/>
					<stop  offset="0.4771" style="stop-color:#E1D4C2"/>
					<stop  offset="0.6776" style="stop-color:#E9DFD3"/>
					<stop  offset="0.8675" style="stop-color:#F5F0EA"/>
					<stop  offset="1" style="stop-color:#FFFFFF"/>
				</linearGradient>
				<path style="fill:url(#SVGID_00000024702145784489147080000003945926686409363376_);" d="M291.7,187.6V216
					c0,6.2-5,11.1-11.1,11.1h-30c-6.2,0-11.1-5-11.1-11.1c0,6.2-5,11.1-11.1,11.1h-30c-6.2,0-11.1-5-11.1-11.1v-28.4
					c0-6.2,5-11.1,11.1-11.1h30c6.2,0,11.1,5,11.1,11.1c0-6.2,5-11.1,11.1-11.1h30C286.7,176.4,291.7,181.4,291.7,187.6z"/>
			</g>
		</g>
	</g>
	<g>
		<path class="st3" d="M12.4,82.7V11.5h46.3v13.2h-29V40h21.7v13.2H29.8v29.5H12.4z"/>
		<path class="st3" d="M88,55v27.7H70.7V11.5h28.1c8.2,0,14.7,2.1,19.3,6.4c4.6,4.3,6.9,9.4,6.9,15.4c0,4.1-1.3,8.1-3.7,12.1
			c-2.5,3.9-6.6,6.7-12.3,8.3l17.4,29h-20.3L90.1,55H88z M88,24.7v17.1h10.7c2.6,0,4.7-0.8,6.2-2.3c1.5-1.6,2.3-3.6,2.3-6.1
			c0-2.5-0.8-4.6-2.3-6.2c-1.6-1.6-3.6-2.4-6.2-2.4H88z"/>
		<path class="st3" d="M181.5,11.3v13.2h-25.7v15.3h22.7V53h-22.7v16.5h25.7v13.2h-43.1V11.3H181.5z"/>
		<path class="st3" d="M239.4,11.3v13.2h-25.7v15.3h22.7V53h-22.7v16.5h25.7v13.2h-43.1V11.3H239.4z"/>
	</g>
	
		<linearGradient id="SVGID_00000109719510529192363280000018059166082826122411_" gradientUnits="userSpaceOnUse" x1="231.134" y1="169.3471" x2="247.738" y2="169.3471">
		<stop  offset="0" style="stop-color:#DBCBB5"/>
		<stop  offset="0.2373" style="stop-color:#E1D4C1"/>
		<stop  offset="0.6753" style="stop-color:#F1EBE2"/>
		<stop  offset="1" style="stop-color:#FFFFFF"/>
	</linearGradient>
	<path style="fill:url(#SVGID_00000109719510529192363280000018059166082826122411_);" d="M239.4,163.2h6.1c1.8,0,2.8,2,1.7,3.5
		l-2.6,3.4l-3.5,4.6c-0.9,1.1-2.6,1.1-3.4,0l-3.5-4.6l-2.6-3.4c-1.1-1.4-0.1-3.5,1.7-3.5H239.4z"/>
</g>
</svg>
