<?xml version="1.0" encoding="utf-8"?>
<!-- Generator: Adobe Illustrator 26.3.1, SVG Export Plug-In . SVG Version: 6.00 Build 0)  -->
<svg version="1.1" id="Calque_1" xmlns="http://www.w3.org/2000/svg" xmlns:xlink="http://www.w3.org/1999/xlink" x="0px" y="0px"
	 viewBox="0 0 676.7 662.2" style="enable-background:new 0 0 676.7 662.2;" xml:space="preserve">
<style type="text/css">
	.st0{fill:#FFFFFF;}
</style>
<g id="home" transform="translate(-85 -107.536)">
	<g id="Groupe_656" transform="translate(85 107.536)">
		<path id="Tracé_6929" class="st0" d="M654.6,299.5c-3.9,0-7.6-1.4-10.5-4L375.2,56.4c-20.6-18.3-51.6-18.3-72.2,0l-268.9,239
			c-6.5,5.8-16.5,5.2-22.3-1.3s-5.2-16.5,1.3-22.3l268.9-239c32.5-28.9,81.6-28.9,114.1,0l268.9,239c6.5,5.8,7.1,15.7,1.3,22.3
			C663.4,297.5,659.1,299.4,654.6,299.5L654.6,299.5z"/>
	</g>
	<g id="Groupe_657" transform="translate(87.116 115.392)">
		<path id="Tracé_6930" class="st0" d="M442.1,642.2h-35c-8.7,0-15.8-7.1-15.8-15.8l0,0V486.2c0-7.1,0-13.5,0.2-19.2
			c1-10.6,0.4-21.3-1.8-31.7c0,0-1.9-1.6-11.7-2.5c-9.8-0.9-22.7-0.9-41-0.9c-17-1.7-34.1-0.4-50.5,4c-4.1,15.1-5.4,30.8-3.8,46.4
			v144.2c0,8.7-7.1,15.8-15.8,15.8c0,0,0,0,0,0h-35c-68.1,0-105.7,0-130.8-25.1s-25.1-62.7-25.1-130.8V279.4c0-8.7,7-15.8,15.7-15.8
			c8.7,0,15.8,7,15.8,15.7c0,0,0,0.1,0,0.1v206.8c0,61.6,0,92.8,15.9,108.5c15.9,15.8,46.9,15.9,108.5,15.9H251V482.2
			c0-36.4,0-56.3,13.7-69.4c13.7-13.1,33.1-12.6,72.2-12.6c43.1,0,62.6,0,75.2,12.8c11.4,11.6,11.2,27.7,10.8,54.3
			c0,5.6,0,11.9,0,18.8v124.5h19.3c61.6,0,92.8,0,108.5-15.9s15.9-46.9,15.9-108.5V279.4c0-8.7,7-15.8,15.7-15.8
			c8.7,0,15.8,7,15.8,15.7c0,0,0,0.1,0,0.1v206.8c0,68.1,0,105.7-25.1,130.8C547.9,642.2,510.3,642.2,442.1,642.2z"/>
	</g>
</g>
</svg>
