<svg xmlns="http://www.w3.org/2000/svg" xmlns:xlink="http://www.w3.org/1999/xlink" width="1080" zoomAndPan="magnify" viewBox="0 0 810 809.999993" height="1080" preserveAspectRatio="xMidYMid meet" version="1.0"><defs><clipPath id="d1f9e7e430"><path d="M 268 142.636719 L 542 142.636719 L 542 416 L 268 416 Z M 268 142.636719 " clip-rule="nonzero"/></clipPath><clipPath id="617bdc0359"><path d="M 142.636719 431 L 667.636719 431 L 667.636719 667.636719 L 142.636719 667.636719 Z M 142.636719 431 " clip-rule="nonzero"/></clipPath></defs><g clip-path="url(#d1f9e7e430)"><path fill="#633d21" d="M 404.996094 415.492188 C 480.21875 415.492188 541.421875 354.289062 541.421875 279.0625 C 541.421875 203.839844 480.21875 142.636719 404.996094 142.636719 C 329.773438 142.636719 268.570312 203.839844 268.570312 279.0625 C 268.570312 354.289062 329.773438 415.492188 404.996094 415.492188 Z M 404.996094 163.625 C 468.644531 163.625 520.433594 215.414062 520.433594 279.0625 C 520.433594 342.710938 468.644531 394.5 404.996094 394.5 C 341.347656 394.5 289.558594 342.710938 289.558594 279.0625 C 289.558594 215.414062 341.347656 163.625 404.996094 163.625 Z M 404.996094 163.625 " fill-opacity="1" fill-rule="nonzero"/></g><g clip-path="url(#617bdc0359)"><path fill="#633d21" d="M 542.355469 433.320312 C 538.578125 430.992188 533.742188 431.296875 530.257812 434.097656 C 494.386719 463.113281 451.066406 478.457031 404.996094 478.457031 C 358.925781 478.457031 315.617188 463.113281 279.746094 434.097656 C 276.292969 431.296875 271.433594 430.980469 267.644531 433.320312 C 189.367188 481.519531 142.636719 565.089844 142.636719 656.859375 C 142.636719 662.664062 147.339844 667.355469 153.132812 667.355469 L 656.859375 667.355469 C 662.664062 667.355469 667.355469 662.664062 667.355469 656.859375 C 667.355469 565.089844 620.625 481.519531 542.355469 433.320312 Z M 163.847656 646.367188 C 167.152344 568.488281 207.125 498.039062 272.527344 455.085938 C 310.589844 483.746094 357.332031 499.445312 404.996094 499.445312 C 452.671875 499.445312 499.414062 483.746094 537.464844 455.085938 C 602.867188 498.039062 642.839844 568.488281 646.144531 646.367188 Z M 163.847656 646.367188 " fill-opacity="1" fill-rule="nonzero"/></g></svg>